G04 EAGLE Gerber RS-274X export*
G75*
%MOMM*%
%FSLAX34Y34*%
%LPD*%
%INSilkscreen Bottom*%
%IPPOS*%
%AMOC8*
5,1,8,0,0,1.08239X$1,22.5*%
G01*
%ADD10C,0.584200*%
%ADD11C,0.177800*%
%ADD12C,0.152400*%
%ADD13C,0.127000*%
%ADD14R,4.080000X0.040000*%
%ADD15R,4.200000X0.040000*%
%ADD16R,4.240000X0.040000*%
%ADD17R,4.320000X0.040000*%
%ADD18R,4.360000X0.040000*%
%ADD19R,4.400000X0.040000*%
%ADD20R,1.080000X0.040000*%
%ADD21R,3.080000X0.040000*%
%ADD22R,1.040000X0.040000*%
%ADD23R,0.320000X0.040000*%
%ADD24R,0.480000X0.040000*%
%ADD25R,0.160000X0.040000*%
%ADD26R,0.960000X0.040000*%
%ADD27R,0.200000X0.040000*%
%ADD28R,0.400000X0.040000*%
%ADD29R,0.120000X0.040000*%
%ADD30R,0.920000X0.040000*%
%ADD31R,0.360000X0.040000*%
%ADD32R,0.880000X0.040000*%
%ADD33R,0.840000X0.040000*%
%ADD34R,0.760000X0.040000*%
%ADD35R,0.280000X0.040000*%
%ADD36R,0.720000X0.040000*%
%ADD37R,0.240000X0.040000*%
%ADD38R,0.640000X0.040000*%
%ADD39R,0.600000X0.040000*%
%ADD40R,0.560000X0.040000*%
%ADD41R,0.520000X0.040000*%
%ADD42R,0.040000X0.040000*%
%ADD43R,0.080000X0.040000*%
%ADD44R,1.000000X0.040000*%
%ADD45R,0.440000X0.040000*%
%ADD46R,3.960000X0.040000*%
%ADD47R,3.880000X0.040000*%
%ADD48R,3.840000X0.040000*%
%ADD49R,3.800000X0.040000*%
%ADD50R,3.680000X0.040000*%
%ADD51R,3.600000X0.040000*%
%ADD52R,3.440000X0.040000*%
%ADD53R,6.660000X0.060000*%
%ADD54R,6.900000X0.060000*%
%ADD55R,7.140000X0.060000*%
%ADD56R,7.320000X0.060000*%
%ADD57R,7.440000X0.060000*%
%ADD58R,7.560000X0.060000*%
%ADD59R,7.680000X0.060000*%
%ADD60R,0.900000X0.060000*%
%ADD61R,1.080000X0.060000*%
%ADD62R,2.160000X0.060000*%
%ADD63R,1.560000X0.060000*%
%ADD64R,1.440000X0.060000*%
%ADD65R,0.840000X0.060000*%
%ADD66R,0.960000X0.060000*%
%ADD67R,0.600000X0.060000*%
%ADD68R,1.260000X0.060000*%
%ADD69R,1.380000X0.060000*%
%ADD70R,0.480000X0.060000*%
%ADD71R,0.420000X0.060000*%
%ADD72R,0.720000X0.060000*%
%ADD73R,0.300000X0.060000*%
%ADD74R,0.780000X0.060000*%
%ADD75R,1.020000X0.060000*%
%ADD76R,0.240000X0.060000*%
%ADD77R,1.140000X0.060000*%
%ADD78R,0.660000X0.060000*%
%ADD79R,1.200000X0.060000*%
%ADD80R,0.180000X0.060000*%
%ADD81R,0.540000X0.060000*%
%ADD82R,0.360000X0.060000*%
%ADD83R,1.320000X0.060000*%
%ADD84R,0.060000X0.060000*%
%ADD85R,1.500000X0.060000*%
%ADD86R,0.120000X0.060000*%
%ADD87R,1.620000X0.060000*%
%ADD88R,15.680000X0.140000*%
%ADD89R,16.240000X0.140000*%
%ADD90R,16.520000X0.140000*%
%ADD91R,16.940000X0.140000*%
%ADD92R,17.080000X0.140000*%
%ADD93R,17.220000X0.140000*%
%ADD94R,17.500000X0.140000*%
%ADD95R,6.300000X0.140000*%
%ADD96R,5.740000X0.140000*%
%ADD97R,3.780000X0.140000*%
%ADD98R,2.660000X0.140000*%
%ADD99R,2.800000X0.140000*%
%ADD100R,0.980000X0.140000*%
%ADD101R,2.100000X0.140000*%
%ADD102R,3.500000X0.140000*%
%ADD103R,2.380000X0.140000*%
%ADD104R,0.700000X0.140000*%
%ADD105R,1.540000X0.140000*%
%ADD106R,3.220000X0.140000*%
%ADD107R,2.520000X0.140000*%
%ADD108R,2.240000X0.140000*%
%ADD109R,0.560000X0.140000*%
%ADD110R,1.260000X0.140000*%
%ADD111R,1.960000X0.140000*%
%ADD112R,0.420000X0.140000*%
%ADD113R,3.080000X0.140000*%
%ADD114R,1.820000X0.140000*%
%ADD115R,0.840000X0.140000*%
%ADD116R,2.940000X0.140000*%
%ADD117R,0.280000X0.140000*%
%ADD118R,1.120000X0.140000*%
%ADD119R,1.680000X0.140000*%
%ADD120R,0.140000X0.140000*%
%ADD121R,1.400000X0.140000*%
%ADD122R,19.040000X0.140000*%
%ADD123R,18.900000X0.140000*%
%ADD124R,18.760000X0.140000*%
%ADD125R,18.620000X0.140000*%
%ADD126R,18.480000X0.140000*%
%ADD127R,18.340000X0.140000*%
%ADD128R,17.920000X0.140000*%

G36*
X734095Y497844D02*
X734095Y497844D01*
X734129Y497842D01*
X734318Y497864D01*
X734509Y497881D01*
X734542Y497890D01*
X734576Y497894D01*
X734759Y497949D01*
X734943Y497999D01*
X734974Y498014D01*
X735007Y498024D01*
X735178Y498111D01*
X735350Y498193D01*
X735378Y498213D01*
X735409Y498228D01*
X735561Y498344D01*
X735716Y498455D01*
X735740Y498480D01*
X735767Y498500D01*
X735896Y498641D01*
X736030Y498777D01*
X736049Y498806D01*
X736073Y498832D01*
X736175Y498993D01*
X736282Y499150D01*
X736296Y499182D01*
X736314Y499211D01*
X736387Y499388D01*
X736464Y499562D01*
X736472Y499596D01*
X736485Y499628D01*
X736525Y499815D01*
X736571Y500000D01*
X736573Y500034D01*
X736580Y500068D01*
X736599Y500380D01*
X736599Y728980D01*
X736596Y729015D01*
X736598Y729049D01*
X736576Y729238D01*
X736559Y729429D01*
X736550Y729462D01*
X736546Y729496D01*
X736491Y729679D01*
X736441Y729863D01*
X736426Y729894D01*
X736416Y729927D01*
X736329Y730098D01*
X736247Y730270D01*
X736227Y730298D01*
X736212Y730329D01*
X736096Y730481D01*
X735985Y730636D01*
X735960Y730660D01*
X735940Y730687D01*
X735800Y730816D01*
X735663Y730950D01*
X735634Y730969D01*
X735608Y730993D01*
X735447Y731095D01*
X735290Y731202D01*
X735258Y731216D01*
X735229Y731234D01*
X735052Y731307D01*
X734878Y731384D01*
X734844Y731392D01*
X734812Y731405D01*
X734625Y731445D01*
X734440Y731491D01*
X734406Y731493D01*
X734372Y731500D01*
X734060Y731519D01*
X2540Y731519D01*
X2506Y731516D01*
X2471Y731518D01*
X2282Y731496D01*
X2092Y731479D01*
X2058Y731470D01*
X2024Y731466D01*
X1841Y731411D01*
X1657Y731361D01*
X1626Y731346D01*
X1593Y731336D01*
X1422Y731249D01*
X1251Y731167D01*
X1222Y731147D01*
X1191Y731132D01*
X1039Y731016D01*
X884Y730905D01*
X860Y730880D01*
X833Y730860D01*
X704Y730720D01*
X570Y730583D01*
X551Y730554D01*
X528Y730528D01*
X425Y730367D01*
X318Y730210D01*
X304Y730178D01*
X286Y730149D01*
X213Y729972D01*
X136Y729798D01*
X128Y729764D01*
X115Y729732D01*
X75Y729545D01*
X29Y729360D01*
X27Y729326D01*
X20Y729292D01*
X1Y728980D01*
X1Y500380D01*
X4Y500346D01*
X2Y500311D01*
X24Y500122D01*
X41Y499932D01*
X50Y499898D01*
X54Y499864D01*
X109Y499681D01*
X159Y499497D01*
X174Y499466D01*
X184Y499433D01*
X271Y499262D01*
X353Y499091D01*
X373Y499062D01*
X388Y499031D01*
X504Y498879D01*
X615Y498724D01*
X640Y498700D01*
X660Y498673D01*
X801Y498544D01*
X937Y498410D01*
X966Y498391D01*
X992Y498368D01*
X1153Y498265D01*
X1310Y498158D01*
X1342Y498144D01*
X1371Y498126D01*
X1548Y498053D01*
X1722Y497976D01*
X1756Y497968D01*
X1788Y497955D01*
X1975Y497915D01*
X2160Y497869D01*
X2194Y497867D01*
X2228Y497860D01*
X2540Y497841D01*
X734060Y497841D01*
X734095Y497844D01*
G37*
D10*
X646049Y763143D02*
X646049Y795401D01*
X628128Y795401D02*
X646049Y775688D01*
X638881Y782856D02*
X628128Y763143D01*
X618728Y770311D02*
X618728Y777480D01*
X618727Y777480D02*
X618725Y777655D01*
X618718Y777829D01*
X618708Y778003D01*
X618693Y778177D01*
X618674Y778351D01*
X618651Y778524D01*
X618623Y778696D01*
X618591Y778868D01*
X618556Y779039D01*
X618515Y779208D01*
X618471Y779377D01*
X618423Y779545D01*
X618371Y779712D01*
X618314Y779877D01*
X618254Y780041D01*
X618190Y780203D01*
X618121Y780364D01*
X618049Y780523D01*
X617973Y780680D01*
X617893Y780835D01*
X617810Y780988D01*
X617723Y781139D01*
X617632Y781288D01*
X617537Y781435D01*
X617439Y781579D01*
X617337Y781721D01*
X617232Y781861D01*
X617124Y781998D01*
X617012Y782132D01*
X616898Y782263D01*
X616779Y782392D01*
X616658Y782518D01*
X616534Y782640D01*
X616407Y782760D01*
X616277Y782876D01*
X616144Y782990D01*
X616009Y783100D01*
X615870Y783206D01*
X615730Y783310D01*
X615587Y783409D01*
X615441Y783506D01*
X615293Y783599D01*
X615143Y783688D01*
X614991Y783773D01*
X614837Y783855D01*
X614680Y783933D01*
X614522Y784007D01*
X614362Y784077D01*
X614201Y784143D01*
X614038Y784206D01*
X613873Y784264D01*
X613708Y784318D01*
X613540Y784369D01*
X613372Y784415D01*
X613203Y784457D01*
X613032Y784495D01*
X612861Y784529D01*
X612689Y784558D01*
X612516Y784584D01*
X612343Y784605D01*
X612169Y784622D01*
X611995Y784635D01*
X611821Y784643D01*
X611646Y784647D01*
X611472Y784647D01*
X611297Y784643D01*
X611123Y784635D01*
X610949Y784622D01*
X610775Y784605D01*
X610602Y784584D01*
X610429Y784558D01*
X610257Y784529D01*
X610086Y784495D01*
X609915Y784457D01*
X609746Y784415D01*
X609578Y784369D01*
X609410Y784318D01*
X609245Y784264D01*
X609080Y784206D01*
X608917Y784143D01*
X608756Y784077D01*
X608596Y784007D01*
X608438Y783933D01*
X608281Y783855D01*
X608127Y783773D01*
X607975Y783688D01*
X607825Y783599D01*
X607677Y783506D01*
X607531Y783409D01*
X607388Y783310D01*
X607248Y783206D01*
X607109Y783100D01*
X606974Y782990D01*
X606841Y782876D01*
X606711Y782760D01*
X606584Y782640D01*
X606460Y782518D01*
X606339Y782392D01*
X606220Y782263D01*
X606106Y782132D01*
X605994Y781998D01*
X605886Y781861D01*
X605781Y781721D01*
X605679Y781579D01*
X605581Y781435D01*
X605486Y781288D01*
X605395Y781139D01*
X605308Y780988D01*
X605225Y780835D01*
X605145Y780680D01*
X605069Y780523D01*
X604997Y780364D01*
X604928Y780203D01*
X604864Y780041D01*
X604804Y779877D01*
X604747Y779712D01*
X604695Y779545D01*
X604647Y779377D01*
X604603Y779208D01*
X604562Y779039D01*
X604527Y778868D01*
X604495Y778696D01*
X604467Y778524D01*
X604444Y778351D01*
X604425Y778177D01*
X604410Y778003D01*
X604400Y777829D01*
X604393Y777655D01*
X604391Y777480D01*
X604391Y770311D01*
X604393Y770136D01*
X604400Y769962D01*
X604410Y769788D01*
X604425Y769614D01*
X604444Y769440D01*
X604467Y769267D01*
X604495Y769095D01*
X604527Y768923D01*
X604562Y768752D01*
X604603Y768583D01*
X604647Y768414D01*
X604695Y768246D01*
X604747Y768079D01*
X604804Y767914D01*
X604864Y767750D01*
X604928Y767588D01*
X604997Y767427D01*
X605069Y767268D01*
X605145Y767111D01*
X605225Y766956D01*
X605308Y766803D01*
X605395Y766652D01*
X605486Y766503D01*
X605581Y766356D01*
X605679Y766212D01*
X605781Y766070D01*
X605886Y765930D01*
X605994Y765793D01*
X606106Y765659D01*
X606220Y765528D01*
X606339Y765399D01*
X606460Y765273D01*
X606584Y765151D01*
X606711Y765031D01*
X606841Y764915D01*
X606974Y764801D01*
X607109Y764691D01*
X607248Y764585D01*
X607388Y764481D01*
X607531Y764382D01*
X607677Y764285D01*
X607825Y764192D01*
X607975Y764103D01*
X608127Y764018D01*
X608281Y763936D01*
X608438Y763858D01*
X608596Y763784D01*
X608756Y763714D01*
X608917Y763648D01*
X609080Y763585D01*
X609245Y763527D01*
X609410Y763473D01*
X609578Y763422D01*
X609746Y763376D01*
X609915Y763334D01*
X610086Y763296D01*
X610257Y763262D01*
X610429Y763233D01*
X610602Y763207D01*
X610775Y763186D01*
X610949Y763169D01*
X611123Y763156D01*
X611297Y763148D01*
X611472Y763144D01*
X611646Y763144D01*
X611821Y763148D01*
X611995Y763156D01*
X612169Y763169D01*
X612343Y763186D01*
X612516Y763207D01*
X612689Y763233D01*
X612861Y763262D01*
X613032Y763296D01*
X613203Y763334D01*
X613372Y763376D01*
X613540Y763422D01*
X613708Y763473D01*
X613873Y763527D01*
X614038Y763585D01*
X614201Y763648D01*
X614362Y763714D01*
X614522Y763784D01*
X614680Y763858D01*
X614837Y763936D01*
X614991Y764018D01*
X615143Y764103D01*
X615293Y764192D01*
X615441Y764285D01*
X615587Y764382D01*
X615730Y764481D01*
X615870Y764585D01*
X616009Y764691D01*
X616144Y764801D01*
X616277Y764915D01*
X616407Y765031D01*
X616534Y765151D01*
X616658Y765273D01*
X616779Y765399D01*
X616898Y765528D01*
X617012Y765659D01*
X617124Y765793D01*
X617232Y765930D01*
X617337Y766070D01*
X617439Y766212D01*
X617537Y766356D01*
X617632Y766503D01*
X617723Y766652D01*
X617810Y766803D01*
X617893Y766956D01*
X617973Y767111D01*
X618049Y767268D01*
X618121Y767427D01*
X618190Y767588D01*
X618254Y767750D01*
X618314Y767914D01*
X618371Y768079D01*
X618423Y768246D01*
X618471Y768414D01*
X618515Y768583D01*
X618556Y768752D01*
X618591Y768923D01*
X618623Y769095D01*
X618651Y769267D01*
X618674Y769440D01*
X618693Y769614D01*
X618708Y769788D01*
X618718Y769962D01*
X618725Y770136D01*
X618727Y770311D01*
X592920Y763143D02*
X592920Y784648D01*
X582167Y784648D01*
X582167Y781064D01*
X576091Y784648D02*
X565338Y784648D01*
X572507Y795401D02*
X572507Y768519D01*
X572506Y768519D02*
X572504Y768373D01*
X572498Y768228D01*
X572488Y768083D01*
X572474Y767938D01*
X572457Y767793D01*
X572435Y767649D01*
X572410Y767506D01*
X572380Y767363D01*
X572347Y767222D01*
X572310Y767081D01*
X572269Y766941D01*
X572225Y766802D01*
X572176Y766665D01*
X572124Y766529D01*
X572068Y766395D01*
X572009Y766262D01*
X571946Y766130D01*
X571880Y766001D01*
X571810Y765873D01*
X571736Y765747D01*
X571660Y765624D01*
X571580Y765502D01*
X571496Y765383D01*
X571410Y765266D01*
X571320Y765151D01*
X571227Y765039D01*
X571132Y764929D01*
X571033Y764822D01*
X570931Y764718D01*
X570827Y764616D01*
X570720Y764517D01*
X570610Y764422D01*
X570498Y764329D01*
X570383Y764239D01*
X570266Y764153D01*
X570147Y764069D01*
X570025Y763989D01*
X569902Y763913D01*
X569776Y763839D01*
X569648Y763769D01*
X569519Y763703D01*
X569387Y763640D01*
X569254Y763581D01*
X569120Y763525D01*
X568984Y763473D01*
X568847Y763424D01*
X568708Y763380D01*
X568568Y763339D01*
X568427Y763302D01*
X568286Y763269D01*
X568143Y763239D01*
X568000Y763214D01*
X567856Y763192D01*
X567711Y763175D01*
X567566Y763161D01*
X567421Y763151D01*
X567276Y763145D01*
X567130Y763143D01*
X565338Y763143D01*
X550486Y763143D02*
X541526Y763143D01*
X550486Y763143D02*
X550632Y763145D01*
X550777Y763151D01*
X550922Y763161D01*
X551067Y763175D01*
X551212Y763192D01*
X551356Y763214D01*
X551499Y763239D01*
X551642Y763269D01*
X551783Y763302D01*
X551924Y763339D01*
X552064Y763380D01*
X552203Y763424D01*
X552340Y763473D01*
X552476Y763525D01*
X552610Y763581D01*
X552743Y763640D01*
X552875Y763703D01*
X553004Y763769D01*
X553132Y763839D01*
X553258Y763913D01*
X553381Y763989D01*
X553503Y764069D01*
X553622Y764153D01*
X553739Y764239D01*
X553854Y764329D01*
X553966Y764422D01*
X554076Y764517D01*
X554183Y764616D01*
X554287Y764718D01*
X554389Y764822D01*
X554488Y764929D01*
X554583Y765039D01*
X554676Y765151D01*
X554766Y765266D01*
X554852Y765383D01*
X554936Y765502D01*
X555016Y765624D01*
X555092Y765747D01*
X555166Y765873D01*
X555236Y766001D01*
X555302Y766130D01*
X555365Y766262D01*
X555424Y766395D01*
X555480Y766529D01*
X555532Y766665D01*
X555581Y766802D01*
X555625Y766941D01*
X555666Y767081D01*
X555703Y767222D01*
X555736Y767363D01*
X555766Y767506D01*
X555791Y767649D01*
X555813Y767793D01*
X555830Y767938D01*
X555844Y768083D01*
X555854Y768228D01*
X555860Y768373D01*
X555862Y768519D01*
X555863Y768519D02*
X555863Y777480D01*
X555862Y777480D02*
X555860Y777655D01*
X555853Y777829D01*
X555843Y778003D01*
X555828Y778177D01*
X555809Y778351D01*
X555786Y778524D01*
X555758Y778696D01*
X555726Y778868D01*
X555691Y779039D01*
X555650Y779208D01*
X555606Y779377D01*
X555558Y779545D01*
X555506Y779712D01*
X555449Y779877D01*
X555389Y780041D01*
X555325Y780203D01*
X555256Y780364D01*
X555184Y780523D01*
X555108Y780680D01*
X555028Y780835D01*
X554945Y780988D01*
X554858Y781139D01*
X554767Y781288D01*
X554672Y781435D01*
X554574Y781579D01*
X554472Y781721D01*
X554367Y781861D01*
X554259Y781998D01*
X554147Y782132D01*
X554033Y782263D01*
X553914Y782392D01*
X553793Y782518D01*
X553669Y782640D01*
X553542Y782760D01*
X553412Y782876D01*
X553279Y782990D01*
X553144Y783100D01*
X553005Y783206D01*
X552865Y783310D01*
X552722Y783409D01*
X552576Y783506D01*
X552428Y783599D01*
X552278Y783688D01*
X552126Y783773D01*
X551972Y783855D01*
X551815Y783933D01*
X551657Y784007D01*
X551497Y784077D01*
X551336Y784143D01*
X551173Y784206D01*
X551008Y784264D01*
X550843Y784318D01*
X550675Y784369D01*
X550507Y784415D01*
X550338Y784457D01*
X550167Y784495D01*
X549996Y784529D01*
X549824Y784558D01*
X549651Y784584D01*
X549478Y784605D01*
X549304Y784622D01*
X549130Y784635D01*
X548956Y784643D01*
X548781Y784647D01*
X548607Y784647D01*
X548432Y784643D01*
X548258Y784635D01*
X548084Y784622D01*
X547910Y784605D01*
X547737Y784584D01*
X547564Y784558D01*
X547392Y784529D01*
X547221Y784495D01*
X547050Y784457D01*
X546881Y784415D01*
X546713Y784369D01*
X546545Y784318D01*
X546380Y784264D01*
X546215Y784206D01*
X546052Y784143D01*
X545891Y784077D01*
X545731Y784007D01*
X545573Y783933D01*
X545416Y783855D01*
X545262Y783773D01*
X545110Y783688D01*
X544960Y783599D01*
X544812Y783506D01*
X544666Y783409D01*
X544523Y783310D01*
X544383Y783206D01*
X544244Y783100D01*
X544109Y782990D01*
X543976Y782876D01*
X543846Y782760D01*
X543719Y782640D01*
X543595Y782518D01*
X543474Y782392D01*
X543355Y782263D01*
X543241Y782132D01*
X543129Y781998D01*
X543021Y781861D01*
X542916Y781721D01*
X542814Y781579D01*
X542716Y781435D01*
X542621Y781288D01*
X542530Y781139D01*
X542443Y780988D01*
X542360Y780835D01*
X542280Y780680D01*
X542204Y780523D01*
X542132Y780364D01*
X542063Y780203D01*
X541999Y780041D01*
X541939Y779877D01*
X541882Y779712D01*
X541830Y779545D01*
X541782Y779377D01*
X541738Y779208D01*
X541697Y779039D01*
X541662Y778868D01*
X541630Y778696D01*
X541602Y778524D01*
X541579Y778351D01*
X541560Y778177D01*
X541545Y778003D01*
X541535Y777829D01*
X541528Y777655D01*
X541526Y777480D01*
X541526Y773896D01*
X555863Y773896D01*
X532050Y763143D02*
X517713Y784648D01*
X532050Y784648D02*
X517713Y763143D01*
D11*
X265811Y790829D02*
X262594Y800481D01*
X259376Y790829D01*
X260181Y793242D02*
X265007Y793242D01*
X254495Y790829D02*
X254495Y797264D01*
X249669Y797264D01*
X249590Y797262D01*
X249511Y797256D01*
X249433Y797247D01*
X249355Y797233D01*
X249278Y797216D01*
X249202Y797195D01*
X249127Y797170D01*
X249053Y797142D01*
X248981Y797110D01*
X248911Y797074D01*
X248842Y797035D01*
X248775Y796993D01*
X248711Y796947D01*
X248648Y796899D01*
X248588Y796847D01*
X248531Y796793D01*
X248477Y796736D01*
X248425Y796676D01*
X248377Y796613D01*
X248331Y796549D01*
X248289Y796482D01*
X248250Y796413D01*
X248214Y796343D01*
X248182Y796271D01*
X248154Y796197D01*
X248129Y796122D01*
X248108Y796046D01*
X248091Y795969D01*
X248077Y795891D01*
X248068Y795813D01*
X248062Y795734D01*
X248060Y795655D01*
X248061Y795655D02*
X248061Y790829D01*
X251278Y790829D02*
X251278Y797264D01*
X243048Y797264D02*
X243048Y790829D01*
X243317Y799945D02*
X243317Y800481D01*
X242780Y800481D01*
X242780Y799945D01*
X243317Y799945D01*
X238335Y797264D02*
X238335Y790829D01*
X238335Y797264D02*
X235654Y797264D01*
X235575Y797262D01*
X235496Y797256D01*
X235418Y797247D01*
X235340Y797233D01*
X235263Y797216D01*
X235187Y797195D01*
X235112Y797170D01*
X235038Y797142D01*
X234966Y797110D01*
X234896Y797074D01*
X234827Y797035D01*
X234760Y796993D01*
X234696Y796947D01*
X234633Y796899D01*
X234573Y796847D01*
X234516Y796793D01*
X234462Y796736D01*
X234410Y796676D01*
X234362Y796613D01*
X234316Y796549D01*
X234274Y796482D01*
X234235Y796413D01*
X234199Y796343D01*
X234167Y796271D01*
X234139Y796197D01*
X234114Y796122D01*
X234093Y796046D01*
X234076Y795969D01*
X234062Y795891D01*
X234053Y795813D01*
X234047Y795734D01*
X234045Y795655D01*
X234046Y795655D02*
X234046Y790829D01*
X227468Y790829D02*
X224787Y790829D01*
X227468Y790829D02*
X227547Y790831D01*
X227626Y790837D01*
X227704Y790846D01*
X227782Y790860D01*
X227859Y790877D01*
X227935Y790898D01*
X228010Y790923D01*
X228084Y790951D01*
X228156Y790983D01*
X228226Y791019D01*
X228295Y791058D01*
X228362Y791100D01*
X228426Y791146D01*
X228489Y791194D01*
X228549Y791246D01*
X228606Y791300D01*
X228660Y791357D01*
X228712Y791417D01*
X228760Y791480D01*
X228806Y791544D01*
X228848Y791611D01*
X228887Y791680D01*
X228923Y791750D01*
X228955Y791822D01*
X228983Y791896D01*
X229008Y791971D01*
X229029Y792047D01*
X229046Y792124D01*
X229060Y792202D01*
X229069Y792280D01*
X229075Y792359D01*
X229077Y792438D01*
X229077Y795119D01*
X229075Y795210D01*
X229069Y795301D01*
X229060Y795391D01*
X229046Y795482D01*
X229029Y795571D01*
X229008Y795659D01*
X228983Y795747D01*
X228954Y795834D01*
X228922Y795919D01*
X228887Y796003D01*
X228847Y796085D01*
X228805Y796165D01*
X228759Y796244D01*
X228709Y796320D01*
X228657Y796394D01*
X228601Y796467D01*
X228542Y796536D01*
X228481Y796603D01*
X228416Y796668D01*
X228349Y796729D01*
X228280Y796788D01*
X228207Y796844D01*
X228133Y796896D01*
X228057Y796946D01*
X227978Y796992D01*
X227898Y797034D01*
X227816Y797074D01*
X227732Y797109D01*
X227647Y797141D01*
X227560Y797170D01*
X227472Y797195D01*
X227384Y797216D01*
X227295Y797233D01*
X227204Y797247D01*
X227114Y797256D01*
X227023Y797262D01*
X226932Y797264D01*
X226841Y797262D01*
X226750Y797256D01*
X226660Y797247D01*
X226569Y797233D01*
X226480Y797216D01*
X226392Y797195D01*
X226304Y797170D01*
X226217Y797141D01*
X226132Y797109D01*
X226048Y797074D01*
X225966Y797034D01*
X225886Y796992D01*
X225807Y796946D01*
X225731Y796896D01*
X225657Y796844D01*
X225584Y796788D01*
X225515Y796729D01*
X225448Y796668D01*
X225383Y796603D01*
X225322Y796536D01*
X225263Y796467D01*
X225207Y796394D01*
X225155Y796320D01*
X225105Y796244D01*
X225059Y796165D01*
X225017Y796085D01*
X224977Y796003D01*
X224942Y795919D01*
X224910Y795834D01*
X224881Y795747D01*
X224856Y795659D01*
X224835Y795571D01*
X224818Y795482D01*
X224804Y795391D01*
X224795Y795301D01*
X224789Y795210D01*
X224787Y795119D01*
X224787Y794046D01*
X229077Y794046D01*
X214033Y790829D02*
X214033Y800481D01*
X210816Y795119D01*
X207599Y800481D01*
X207599Y790829D01*
X200722Y790829D02*
X198041Y790829D01*
X200722Y790829D02*
X200801Y790831D01*
X200880Y790837D01*
X200958Y790846D01*
X201036Y790860D01*
X201113Y790877D01*
X201189Y790898D01*
X201264Y790923D01*
X201338Y790951D01*
X201410Y790983D01*
X201480Y791019D01*
X201549Y791058D01*
X201616Y791100D01*
X201680Y791146D01*
X201743Y791194D01*
X201803Y791246D01*
X201860Y791300D01*
X201914Y791357D01*
X201966Y791417D01*
X202014Y791480D01*
X202060Y791544D01*
X202102Y791611D01*
X202141Y791680D01*
X202177Y791750D01*
X202209Y791822D01*
X202237Y791896D01*
X202262Y791971D01*
X202283Y792047D01*
X202300Y792124D01*
X202314Y792202D01*
X202323Y792280D01*
X202329Y792359D01*
X202331Y792438D01*
X202331Y795119D01*
X202329Y795210D01*
X202323Y795301D01*
X202314Y795391D01*
X202300Y795482D01*
X202283Y795571D01*
X202262Y795659D01*
X202237Y795747D01*
X202208Y795834D01*
X202176Y795919D01*
X202141Y796003D01*
X202101Y796085D01*
X202059Y796165D01*
X202013Y796244D01*
X201963Y796320D01*
X201911Y796394D01*
X201855Y796467D01*
X201796Y796536D01*
X201735Y796603D01*
X201670Y796668D01*
X201603Y796729D01*
X201534Y796788D01*
X201461Y796844D01*
X201387Y796896D01*
X201311Y796946D01*
X201232Y796992D01*
X201152Y797034D01*
X201070Y797074D01*
X200986Y797109D01*
X200901Y797141D01*
X200814Y797170D01*
X200726Y797195D01*
X200638Y797216D01*
X200549Y797233D01*
X200458Y797247D01*
X200368Y797256D01*
X200277Y797262D01*
X200186Y797264D01*
X200095Y797262D01*
X200004Y797256D01*
X199914Y797247D01*
X199823Y797233D01*
X199734Y797216D01*
X199646Y797195D01*
X199558Y797170D01*
X199471Y797141D01*
X199386Y797109D01*
X199302Y797074D01*
X199220Y797034D01*
X199140Y796992D01*
X199061Y796946D01*
X198985Y796896D01*
X198911Y796844D01*
X198838Y796788D01*
X198769Y796729D01*
X198702Y796668D01*
X198637Y796603D01*
X198576Y796536D01*
X198517Y796467D01*
X198461Y796394D01*
X198409Y796320D01*
X198359Y796244D01*
X198313Y796165D01*
X198271Y796085D01*
X198231Y796003D01*
X198196Y795919D01*
X198164Y795834D01*
X198135Y795747D01*
X198110Y795659D01*
X198089Y795571D01*
X198072Y795482D01*
X198058Y795391D01*
X198049Y795301D01*
X198043Y795210D01*
X198041Y795119D01*
X198041Y794046D01*
X202331Y794046D01*
X193073Y790829D02*
X193073Y800481D01*
X193073Y797264D02*
X190392Y797264D01*
X190313Y797262D01*
X190234Y797256D01*
X190156Y797247D01*
X190078Y797233D01*
X190001Y797216D01*
X189925Y797195D01*
X189850Y797170D01*
X189776Y797142D01*
X189704Y797110D01*
X189634Y797074D01*
X189565Y797035D01*
X189498Y796993D01*
X189434Y796947D01*
X189371Y796899D01*
X189311Y796847D01*
X189254Y796793D01*
X189200Y796736D01*
X189148Y796676D01*
X189100Y796613D01*
X189054Y796549D01*
X189012Y796482D01*
X188973Y796413D01*
X188937Y796343D01*
X188905Y796271D01*
X188877Y796197D01*
X188852Y796122D01*
X188831Y796046D01*
X188814Y795969D01*
X188800Y795891D01*
X188791Y795813D01*
X188785Y795734D01*
X188783Y795655D01*
X188783Y790829D01*
X179603Y790829D02*
X179603Y800481D01*
X179603Y790829D02*
X182284Y790829D01*
X182363Y790831D01*
X182442Y790837D01*
X182520Y790846D01*
X182598Y790860D01*
X182675Y790877D01*
X182751Y790898D01*
X182826Y790923D01*
X182900Y790951D01*
X182972Y790983D01*
X183042Y791019D01*
X183111Y791058D01*
X183178Y791100D01*
X183242Y791146D01*
X183305Y791194D01*
X183365Y791246D01*
X183422Y791300D01*
X183476Y791357D01*
X183528Y791417D01*
X183576Y791480D01*
X183622Y791544D01*
X183664Y791611D01*
X183703Y791680D01*
X183739Y791750D01*
X183771Y791822D01*
X183799Y791896D01*
X183824Y791971D01*
X183845Y792047D01*
X183862Y792124D01*
X183876Y792202D01*
X183885Y792280D01*
X183891Y792359D01*
X183893Y792438D01*
X183893Y795655D01*
X183891Y795734D01*
X183885Y795813D01*
X183876Y795891D01*
X183862Y795969D01*
X183845Y796046D01*
X183824Y796122D01*
X183799Y796197D01*
X183771Y796271D01*
X183739Y796343D01*
X183703Y796413D01*
X183664Y796482D01*
X183622Y796549D01*
X183576Y796613D01*
X183528Y796676D01*
X183476Y796736D01*
X183422Y796793D01*
X183365Y796847D01*
X183305Y796899D01*
X183242Y796947D01*
X183178Y796993D01*
X183111Y797035D01*
X183042Y797074D01*
X182972Y797110D01*
X182900Y797142D01*
X182826Y797170D01*
X182751Y797195D01*
X182675Y797216D01*
X182598Y797233D01*
X182520Y797247D01*
X182442Y797256D01*
X182363Y797262D01*
X182284Y797264D01*
X179603Y797264D01*
X174812Y797264D02*
X174812Y790829D01*
X175080Y799945D02*
X175080Y800481D01*
X174544Y800481D01*
X174544Y799945D01*
X175080Y799945D01*
X164313Y800481D02*
X164313Y790829D01*
X161096Y795119D02*
X164313Y800481D01*
X161096Y795119D02*
X157878Y800481D01*
X157878Y790829D01*
X150812Y794583D02*
X148399Y794583D01*
X150812Y794583D02*
X150897Y794581D01*
X150983Y794575D01*
X151068Y794566D01*
X151152Y794552D01*
X151236Y794535D01*
X151318Y794513D01*
X151400Y794488D01*
X151481Y794460D01*
X151560Y794428D01*
X151637Y794392D01*
X151713Y794352D01*
X151787Y794310D01*
X151859Y794264D01*
X151929Y794214D01*
X151997Y794162D01*
X152062Y794107D01*
X152124Y794048D01*
X152184Y793987D01*
X152241Y793923D01*
X152295Y793857D01*
X152345Y793788D01*
X152393Y793718D01*
X152438Y793645D01*
X152479Y793570D01*
X152516Y793493D01*
X152550Y793414D01*
X152581Y793335D01*
X152607Y793253D01*
X152630Y793171D01*
X152650Y793088D01*
X152665Y793004D01*
X152677Y792919D01*
X152685Y792834D01*
X152689Y792749D01*
X152689Y792663D01*
X152685Y792578D01*
X152677Y792493D01*
X152665Y792408D01*
X152650Y792324D01*
X152630Y792241D01*
X152607Y792159D01*
X152581Y792077D01*
X152550Y791998D01*
X152516Y791919D01*
X152479Y791842D01*
X152438Y791768D01*
X152393Y791694D01*
X152345Y791624D01*
X152295Y791555D01*
X152241Y791489D01*
X152184Y791425D01*
X152124Y791364D01*
X152062Y791305D01*
X151997Y791250D01*
X151929Y791198D01*
X151859Y791148D01*
X151787Y791102D01*
X151713Y791060D01*
X151637Y791020D01*
X151560Y790984D01*
X151481Y790952D01*
X151400Y790924D01*
X151318Y790899D01*
X151236Y790877D01*
X151152Y790860D01*
X151068Y790846D01*
X150983Y790837D01*
X150897Y790831D01*
X150812Y790829D01*
X148399Y790829D01*
X148399Y795655D01*
X148401Y795734D01*
X148407Y795813D01*
X148416Y795891D01*
X148430Y795969D01*
X148447Y796046D01*
X148468Y796122D01*
X148493Y796197D01*
X148521Y796271D01*
X148553Y796343D01*
X148589Y796413D01*
X148628Y796482D01*
X148670Y796549D01*
X148716Y796613D01*
X148764Y796676D01*
X148816Y796736D01*
X148870Y796793D01*
X148927Y796847D01*
X148987Y796899D01*
X149050Y796947D01*
X149114Y796993D01*
X149181Y797035D01*
X149250Y797074D01*
X149320Y797110D01*
X149392Y797142D01*
X149466Y797170D01*
X149541Y797195D01*
X149617Y797216D01*
X149694Y797233D01*
X149772Y797247D01*
X149850Y797256D01*
X149929Y797262D01*
X150008Y797264D01*
X152153Y797264D01*
X143010Y797264D02*
X143010Y790829D01*
X143010Y797264D02*
X140329Y797264D01*
X140250Y797262D01*
X140171Y797256D01*
X140093Y797247D01*
X140015Y797233D01*
X139938Y797216D01*
X139862Y797195D01*
X139787Y797170D01*
X139713Y797142D01*
X139641Y797110D01*
X139571Y797074D01*
X139502Y797035D01*
X139435Y796993D01*
X139371Y796947D01*
X139308Y796899D01*
X139248Y796847D01*
X139191Y796793D01*
X139137Y796736D01*
X139085Y796676D01*
X139037Y796613D01*
X138991Y796549D01*
X138949Y796482D01*
X138910Y796413D01*
X138874Y796343D01*
X138842Y796271D01*
X138814Y796197D01*
X138789Y796122D01*
X138768Y796046D01*
X138751Y795969D01*
X138737Y795891D01*
X138728Y795813D01*
X138722Y795734D01*
X138720Y795655D01*
X138720Y790829D01*
X132947Y794583D02*
X130266Y793510D01*
X132947Y794582D02*
X133014Y794611D01*
X133079Y794643D01*
X133143Y794679D01*
X133204Y794718D01*
X133264Y794760D01*
X133321Y794805D01*
X133375Y794853D01*
X133428Y794904D01*
X133477Y794958D01*
X133523Y795014D01*
X133567Y795072D01*
X133607Y795132D01*
X133644Y795195D01*
X133678Y795259D01*
X133709Y795326D01*
X133736Y795393D01*
X133759Y795462D01*
X133779Y795532D01*
X133795Y795603D01*
X133807Y795675D01*
X133815Y795747D01*
X133820Y795820D01*
X133821Y795893D01*
X133818Y795965D01*
X133811Y796038D01*
X133801Y796110D01*
X133786Y796181D01*
X133768Y796252D01*
X133747Y796321D01*
X133721Y796389D01*
X133693Y796456D01*
X133660Y796522D01*
X133625Y796585D01*
X133586Y796646D01*
X133544Y796706D01*
X133499Y796763D01*
X133451Y796818D01*
X133400Y796870D01*
X133346Y796919D01*
X133290Y796966D01*
X133232Y797009D01*
X133171Y797049D01*
X133109Y797087D01*
X133044Y797120D01*
X132978Y797151D01*
X132911Y797178D01*
X132842Y797201D01*
X132772Y797221D01*
X132701Y797237D01*
X132629Y797249D01*
X132557Y797257D01*
X132484Y797262D01*
X132411Y797263D01*
X132265Y797260D01*
X132119Y797252D01*
X131972Y797241D01*
X131827Y797227D01*
X131681Y797209D01*
X131537Y797188D01*
X131392Y797163D01*
X131249Y797134D01*
X131106Y797103D01*
X130964Y797068D01*
X130822Y797029D01*
X130682Y796987D01*
X130543Y796942D01*
X130405Y796893D01*
X130268Y796841D01*
X130132Y796786D01*
X129998Y796727D01*
X130266Y793510D02*
X130199Y793481D01*
X130134Y793449D01*
X130070Y793413D01*
X130009Y793374D01*
X129949Y793332D01*
X129892Y793287D01*
X129838Y793239D01*
X129785Y793188D01*
X129736Y793134D01*
X129690Y793078D01*
X129646Y793020D01*
X129606Y792960D01*
X129569Y792897D01*
X129535Y792833D01*
X129504Y792766D01*
X129477Y792699D01*
X129454Y792630D01*
X129434Y792560D01*
X129418Y792489D01*
X129406Y792417D01*
X129398Y792345D01*
X129393Y792272D01*
X129392Y792199D01*
X129395Y792127D01*
X129402Y792054D01*
X129412Y791982D01*
X129427Y791911D01*
X129445Y791840D01*
X129466Y791771D01*
X129492Y791703D01*
X129520Y791636D01*
X129553Y791570D01*
X129588Y791507D01*
X129627Y791446D01*
X129669Y791386D01*
X129714Y791329D01*
X129762Y791274D01*
X129813Y791222D01*
X129867Y791173D01*
X129923Y791126D01*
X129981Y791083D01*
X130042Y791043D01*
X130104Y791005D01*
X130169Y790972D01*
X130235Y790941D01*
X130302Y790914D01*
X130371Y790891D01*
X130441Y790871D01*
X130512Y790855D01*
X130584Y790843D01*
X130656Y790835D01*
X130729Y790830D01*
X130802Y790829D01*
X130803Y790829D02*
X131018Y790835D01*
X131233Y790845D01*
X131447Y790861D01*
X131661Y790882D01*
X131875Y790908D01*
X132088Y790939D01*
X132300Y790975D01*
X132511Y791016D01*
X132721Y791062D01*
X132930Y791113D01*
X133138Y791168D01*
X133344Y791229D01*
X133549Y791295D01*
X133752Y791365D01*
X124836Y792974D02*
X124836Y795119D01*
X124834Y795210D01*
X124828Y795301D01*
X124819Y795391D01*
X124805Y795482D01*
X124788Y795571D01*
X124767Y795659D01*
X124742Y795747D01*
X124713Y795834D01*
X124681Y795919D01*
X124646Y796003D01*
X124606Y796085D01*
X124564Y796165D01*
X124518Y796244D01*
X124468Y796320D01*
X124416Y796394D01*
X124360Y796467D01*
X124301Y796536D01*
X124240Y796603D01*
X124175Y796668D01*
X124108Y796729D01*
X124039Y796788D01*
X123966Y796844D01*
X123892Y796896D01*
X123816Y796946D01*
X123737Y796992D01*
X123657Y797034D01*
X123575Y797074D01*
X123491Y797109D01*
X123406Y797141D01*
X123319Y797170D01*
X123231Y797195D01*
X123143Y797216D01*
X123054Y797233D01*
X122963Y797247D01*
X122873Y797256D01*
X122782Y797262D01*
X122691Y797264D01*
X122600Y797262D01*
X122509Y797256D01*
X122419Y797247D01*
X122328Y797233D01*
X122239Y797216D01*
X122151Y797195D01*
X122063Y797170D01*
X121976Y797141D01*
X121891Y797109D01*
X121807Y797074D01*
X121725Y797034D01*
X121645Y796992D01*
X121566Y796946D01*
X121490Y796896D01*
X121416Y796844D01*
X121343Y796788D01*
X121274Y796729D01*
X121207Y796668D01*
X121142Y796603D01*
X121081Y796536D01*
X121022Y796467D01*
X120966Y796394D01*
X120914Y796320D01*
X120864Y796244D01*
X120818Y796165D01*
X120776Y796085D01*
X120736Y796003D01*
X120701Y795919D01*
X120669Y795834D01*
X120640Y795747D01*
X120615Y795659D01*
X120594Y795571D01*
X120577Y795482D01*
X120563Y795391D01*
X120554Y795301D01*
X120548Y795210D01*
X120546Y795119D01*
X120546Y792974D01*
X120548Y792883D01*
X120554Y792792D01*
X120563Y792702D01*
X120577Y792611D01*
X120594Y792522D01*
X120615Y792434D01*
X120640Y792346D01*
X120669Y792259D01*
X120701Y792174D01*
X120736Y792090D01*
X120776Y792008D01*
X120818Y791928D01*
X120864Y791849D01*
X120914Y791773D01*
X120966Y791699D01*
X121022Y791626D01*
X121081Y791557D01*
X121142Y791490D01*
X121207Y791425D01*
X121274Y791364D01*
X121343Y791305D01*
X121416Y791249D01*
X121490Y791197D01*
X121566Y791147D01*
X121645Y791101D01*
X121725Y791059D01*
X121807Y791019D01*
X121891Y790984D01*
X121976Y790952D01*
X122063Y790923D01*
X122151Y790898D01*
X122239Y790877D01*
X122328Y790860D01*
X122419Y790846D01*
X122509Y790837D01*
X122600Y790831D01*
X122691Y790829D01*
X122782Y790831D01*
X122873Y790837D01*
X122963Y790846D01*
X123054Y790860D01*
X123143Y790877D01*
X123231Y790898D01*
X123319Y790923D01*
X123406Y790952D01*
X123491Y790984D01*
X123575Y791019D01*
X123657Y791059D01*
X123737Y791101D01*
X123816Y791147D01*
X123892Y791197D01*
X123966Y791249D01*
X124039Y791305D01*
X124108Y791364D01*
X124175Y791425D01*
X124240Y791490D01*
X124301Y791557D01*
X124360Y791626D01*
X124416Y791699D01*
X124468Y791773D01*
X124518Y791849D01*
X124564Y791928D01*
X124606Y792008D01*
X124646Y792090D01*
X124681Y792174D01*
X124713Y792259D01*
X124742Y792346D01*
X124767Y792434D01*
X124788Y792522D01*
X124805Y792611D01*
X124819Y792702D01*
X124828Y792792D01*
X124834Y792883D01*
X124836Y792974D01*
X115578Y792438D02*
X115578Y797264D01*
X115578Y792438D02*
X115576Y792359D01*
X115570Y792280D01*
X115561Y792202D01*
X115547Y792124D01*
X115530Y792047D01*
X115509Y791971D01*
X115484Y791896D01*
X115456Y791822D01*
X115424Y791750D01*
X115388Y791680D01*
X115349Y791611D01*
X115307Y791544D01*
X115261Y791480D01*
X115213Y791417D01*
X115161Y791357D01*
X115107Y791300D01*
X115050Y791246D01*
X114990Y791194D01*
X114927Y791146D01*
X114863Y791100D01*
X114796Y791058D01*
X114727Y791019D01*
X114657Y790983D01*
X114585Y790951D01*
X114511Y790923D01*
X114436Y790898D01*
X114360Y790877D01*
X114283Y790860D01*
X114205Y790846D01*
X114127Y790837D01*
X114048Y790831D01*
X113969Y790829D01*
X111288Y790829D01*
X111288Y797264D01*
X105889Y797264D02*
X105889Y790829D01*
X105889Y797264D02*
X102671Y797264D01*
X102671Y796191D01*
X99374Y797264D02*
X99374Y790829D01*
X99642Y799945D02*
X99642Y800481D01*
X99106Y800481D01*
X99106Y799945D01*
X99642Y799945D01*
D12*
X265289Y777748D02*
X267208Y771031D01*
X262410Y771031D01*
X263850Y772950D02*
X263850Y769112D01*
X258499Y768152D02*
X254660Y778708D01*
X248110Y777748D02*
X248018Y777746D01*
X247927Y777740D01*
X247836Y777731D01*
X247745Y777717D01*
X247655Y777700D01*
X247566Y777678D01*
X247478Y777653D01*
X247391Y777625D01*
X247305Y777592D01*
X247221Y777556D01*
X247138Y777517D01*
X247057Y777474D01*
X246978Y777427D01*
X246901Y777378D01*
X246826Y777325D01*
X246754Y777269D01*
X246684Y777210D01*
X246616Y777148D01*
X246551Y777083D01*
X246489Y777015D01*
X246430Y776945D01*
X246374Y776873D01*
X246321Y776798D01*
X246272Y776721D01*
X246225Y776642D01*
X246182Y776561D01*
X246143Y776478D01*
X246107Y776394D01*
X246074Y776308D01*
X246046Y776221D01*
X246021Y776133D01*
X245999Y776044D01*
X245982Y775954D01*
X245968Y775863D01*
X245959Y775772D01*
X245953Y775681D01*
X245951Y775589D01*
X248110Y777748D02*
X248213Y777746D01*
X248315Y777740D01*
X248417Y777731D01*
X248519Y777718D01*
X248620Y777701D01*
X248721Y777680D01*
X248820Y777656D01*
X248919Y777627D01*
X249016Y777596D01*
X249113Y777560D01*
X249208Y777522D01*
X249301Y777479D01*
X249393Y777433D01*
X249483Y777384D01*
X249571Y777332D01*
X249658Y777276D01*
X249742Y777217D01*
X249823Y777156D01*
X249903Y777091D01*
X249980Y777023D01*
X250055Y776952D01*
X250126Y776879D01*
X250195Y776803D01*
X250262Y776725D01*
X250325Y776644D01*
X250385Y776561D01*
X250442Y776476D01*
X250496Y776389D01*
X250547Y776299D01*
X250594Y776208D01*
X250638Y776116D01*
X250679Y776021D01*
X250716Y775926D01*
X250749Y775829D01*
X246671Y773910D02*
X246604Y773976D01*
X246540Y774045D01*
X246479Y774116D01*
X246421Y774190D01*
X246366Y774266D01*
X246314Y774344D01*
X246265Y774424D01*
X246219Y774506D01*
X246177Y774590D01*
X246138Y774676D01*
X246103Y774763D01*
X246072Y774851D01*
X246044Y774941D01*
X246019Y775031D01*
X245998Y775123D01*
X245981Y775215D01*
X245968Y775308D01*
X245959Y775401D01*
X245953Y775495D01*
X245951Y775589D01*
X246671Y773910D02*
X250749Y769112D01*
X245951Y769112D01*
X238966Y777748D02*
X238874Y777746D01*
X238783Y777740D01*
X238692Y777731D01*
X238601Y777717D01*
X238511Y777700D01*
X238422Y777678D01*
X238334Y777653D01*
X238247Y777625D01*
X238161Y777592D01*
X238077Y777556D01*
X237994Y777517D01*
X237913Y777474D01*
X237834Y777427D01*
X237757Y777378D01*
X237682Y777325D01*
X237610Y777269D01*
X237540Y777210D01*
X237472Y777148D01*
X237407Y777083D01*
X237345Y777015D01*
X237286Y776945D01*
X237230Y776873D01*
X237177Y776798D01*
X237128Y776721D01*
X237081Y776642D01*
X237038Y776561D01*
X236999Y776478D01*
X236963Y776394D01*
X236930Y776308D01*
X236902Y776221D01*
X236877Y776133D01*
X236855Y776044D01*
X236838Y775954D01*
X236824Y775863D01*
X236815Y775772D01*
X236809Y775681D01*
X236807Y775589D01*
X238966Y777748D02*
X239069Y777746D01*
X239171Y777740D01*
X239273Y777731D01*
X239375Y777718D01*
X239476Y777701D01*
X239577Y777680D01*
X239676Y777656D01*
X239775Y777627D01*
X239872Y777596D01*
X239969Y777560D01*
X240064Y777522D01*
X240157Y777479D01*
X240249Y777433D01*
X240339Y777384D01*
X240427Y777332D01*
X240514Y777276D01*
X240598Y777217D01*
X240679Y777156D01*
X240759Y777091D01*
X240836Y777023D01*
X240911Y776952D01*
X240982Y776879D01*
X241051Y776803D01*
X241118Y776725D01*
X241181Y776644D01*
X241241Y776561D01*
X241298Y776476D01*
X241352Y776389D01*
X241403Y776299D01*
X241450Y776208D01*
X241494Y776116D01*
X241535Y776021D01*
X241572Y775926D01*
X241605Y775829D01*
X237527Y773910D02*
X237460Y773976D01*
X237396Y774045D01*
X237335Y774116D01*
X237277Y774190D01*
X237222Y774266D01*
X237170Y774344D01*
X237121Y774424D01*
X237075Y774506D01*
X237033Y774590D01*
X236994Y774676D01*
X236959Y774763D01*
X236928Y774851D01*
X236900Y774941D01*
X236875Y775031D01*
X236854Y775123D01*
X236837Y775215D01*
X236824Y775308D01*
X236815Y775401D01*
X236809Y775495D01*
X236807Y775589D01*
X237527Y773910D02*
X241605Y769112D01*
X236807Y769112D01*
X232896Y768152D02*
X229057Y778708D01*
X222507Y777748D02*
X222415Y777746D01*
X222324Y777740D01*
X222233Y777731D01*
X222142Y777717D01*
X222052Y777700D01*
X221963Y777678D01*
X221875Y777653D01*
X221788Y777625D01*
X221702Y777592D01*
X221618Y777556D01*
X221535Y777517D01*
X221454Y777474D01*
X221375Y777427D01*
X221298Y777378D01*
X221223Y777325D01*
X221151Y777269D01*
X221081Y777210D01*
X221013Y777148D01*
X220948Y777083D01*
X220886Y777015D01*
X220827Y776945D01*
X220771Y776873D01*
X220718Y776798D01*
X220669Y776721D01*
X220622Y776642D01*
X220579Y776561D01*
X220540Y776478D01*
X220504Y776394D01*
X220471Y776308D01*
X220443Y776221D01*
X220418Y776133D01*
X220396Y776044D01*
X220379Y775954D01*
X220365Y775863D01*
X220356Y775772D01*
X220350Y775681D01*
X220348Y775589D01*
X222507Y777748D02*
X222610Y777746D01*
X222712Y777740D01*
X222814Y777731D01*
X222916Y777718D01*
X223017Y777701D01*
X223118Y777680D01*
X223217Y777656D01*
X223316Y777627D01*
X223413Y777596D01*
X223510Y777560D01*
X223605Y777522D01*
X223698Y777479D01*
X223790Y777433D01*
X223880Y777384D01*
X223968Y777332D01*
X224055Y777276D01*
X224139Y777217D01*
X224220Y777156D01*
X224300Y777091D01*
X224377Y777023D01*
X224452Y776952D01*
X224523Y776879D01*
X224592Y776803D01*
X224659Y776725D01*
X224722Y776644D01*
X224782Y776561D01*
X224839Y776476D01*
X224893Y776389D01*
X224944Y776299D01*
X224991Y776208D01*
X225035Y776116D01*
X225076Y776021D01*
X225113Y775926D01*
X225146Y775829D01*
X221068Y773910D02*
X221001Y773976D01*
X220937Y774045D01*
X220876Y774116D01*
X220818Y774190D01*
X220763Y774266D01*
X220711Y774344D01*
X220662Y774424D01*
X220616Y774506D01*
X220574Y774590D01*
X220535Y774676D01*
X220500Y774763D01*
X220469Y774851D01*
X220441Y774941D01*
X220416Y775031D01*
X220395Y775123D01*
X220378Y775215D01*
X220365Y775308D01*
X220356Y775401D01*
X220350Y775495D01*
X220348Y775589D01*
X221068Y773910D02*
X225146Y769112D01*
X220348Y769112D01*
X216002Y773430D02*
X216000Y773600D01*
X215994Y773770D01*
X215984Y773939D01*
X215970Y774109D01*
X215951Y774278D01*
X215929Y774446D01*
X215903Y774614D01*
X215873Y774781D01*
X215838Y774947D01*
X215800Y775113D01*
X215758Y775278D01*
X215712Y775441D01*
X215662Y775604D01*
X215608Y775765D01*
X215551Y775925D01*
X215489Y776083D01*
X215424Y776240D01*
X215355Y776395D01*
X215282Y776549D01*
X215254Y776625D01*
X215222Y776700D01*
X215187Y776774D01*
X215149Y776846D01*
X215107Y776916D01*
X215062Y776984D01*
X215014Y777050D01*
X214963Y777114D01*
X214909Y777175D01*
X214853Y777234D01*
X214793Y777290D01*
X214732Y777343D01*
X214668Y777393D01*
X214601Y777441D01*
X214533Y777485D01*
X214462Y777526D01*
X214390Y777564D01*
X214316Y777598D01*
X214241Y777629D01*
X214164Y777657D01*
X214086Y777681D01*
X214007Y777701D01*
X213927Y777718D01*
X213847Y777731D01*
X213766Y777741D01*
X213685Y777746D01*
X213603Y777748D01*
X213521Y777746D01*
X213440Y777741D01*
X213359Y777731D01*
X213279Y777718D01*
X213199Y777701D01*
X213120Y777681D01*
X213042Y777657D01*
X212965Y777629D01*
X212890Y777598D01*
X212816Y777564D01*
X212744Y777526D01*
X212673Y777485D01*
X212605Y777441D01*
X212538Y777393D01*
X212474Y777343D01*
X212413Y777290D01*
X212353Y777234D01*
X212297Y777175D01*
X212243Y777114D01*
X212192Y777050D01*
X212144Y776984D01*
X212099Y776916D01*
X212057Y776846D01*
X212019Y776774D01*
X211984Y776700D01*
X211952Y776625D01*
X211924Y776549D01*
X211851Y776395D01*
X211782Y776240D01*
X211717Y776083D01*
X211655Y775925D01*
X211598Y775765D01*
X211544Y775604D01*
X211494Y775441D01*
X211448Y775278D01*
X211406Y775113D01*
X211368Y774947D01*
X211333Y774781D01*
X211303Y774614D01*
X211277Y774446D01*
X211255Y774278D01*
X211236Y774109D01*
X211222Y773939D01*
X211212Y773770D01*
X211206Y773600D01*
X211204Y773430D01*
X216002Y773430D02*
X216000Y773260D01*
X215994Y773090D01*
X215984Y772921D01*
X215970Y772751D01*
X215951Y772582D01*
X215929Y772414D01*
X215903Y772246D01*
X215873Y772079D01*
X215838Y771913D01*
X215800Y771747D01*
X215758Y771582D01*
X215712Y771419D01*
X215662Y771257D01*
X215608Y771095D01*
X215551Y770936D01*
X215489Y770777D01*
X215424Y770620D01*
X215355Y770465D01*
X215282Y770311D01*
X215254Y770235D01*
X215222Y770160D01*
X215187Y770086D01*
X215149Y770014D01*
X215107Y769944D01*
X215062Y769876D01*
X215014Y769810D01*
X214963Y769746D01*
X214909Y769685D01*
X214853Y769626D01*
X214793Y769570D01*
X214732Y769517D01*
X214668Y769467D01*
X214601Y769419D01*
X214533Y769375D01*
X214462Y769334D01*
X214390Y769296D01*
X214316Y769262D01*
X214241Y769231D01*
X214164Y769203D01*
X214086Y769179D01*
X214007Y769159D01*
X213927Y769142D01*
X213847Y769129D01*
X213766Y769119D01*
X213685Y769114D01*
X213603Y769112D01*
X211924Y770311D02*
X211851Y770465D01*
X211782Y770620D01*
X211717Y770777D01*
X211655Y770936D01*
X211598Y771095D01*
X211544Y771257D01*
X211494Y771419D01*
X211448Y771582D01*
X211406Y771747D01*
X211368Y771913D01*
X211333Y772079D01*
X211303Y772246D01*
X211277Y772414D01*
X211255Y772582D01*
X211236Y772751D01*
X211222Y772921D01*
X211212Y773090D01*
X211206Y773260D01*
X211204Y773430D01*
X211924Y770311D02*
X211952Y770235D01*
X211984Y770160D01*
X212019Y770086D01*
X212057Y770014D01*
X212099Y769944D01*
X212144Y769876D01*
X212192Y769810D01*
X212243Y769746D01*
X212297Y769685D01*
X212353Y769626D01*
X212413Y769570D01*
X212474Y769517D01*
X212538Y769467D01*
X212605Y769419D01*
X212673Y769375D01*
X212744Y769334D01*
X212816Y769296D01*
X212890Y769262D01*
X212965Y769231D01*
X213042Y769203D01*
X213120Y769179D01*
X213199Y769159D01*
X213279Y769142D01*
X213359Y769129D01*
X213440Y769119D01*
X213521Y769114D01*
X213603Y769112D01*
X215522Y771031D02*
X211684Y775829D01*
X206858Y775829D02*
X204459Y777748D01*
X204459Y769112D01*
X206858Y769112D02*
X202060Y769112D01*
X195795Y772950D02*
X192916Y772950D01*
X195795Y772950D02*
X195881Y772952D01*
X195967Y772958D01*
X196053Y772967D01*
X196138Y772981D01*
X196222Y772998D01*
X196306Y773019D01*
X196388Y773044D01*
X196469Y773072D01*
X196549Y773104D01*
X196628Y773140D01*
X196704Y773179D01*
X196779Y773222D01*
X196852Y773267D01*
X196923Y773317D01*
X196991Y773369D01*
X197058Y773424D01*
X197121Y773482D01*
X197182Y773543D01*
X197240Y773606D01*
X197295Y773673D01*
X197348Y773741D01*
X197397Y773812D01*
X197442Y773885D01*
X197485Y773960D01*
X197524Y774036D01*
X197560Y774115D01*
X197592Y774195D01*
X197620Y774276D01*
X197645Y774359D01*
X197666Y774442D01*
X197683Y774526D01*
X197697Y774611D01*
X197706Y774697D01*
X197712Y774783D01*
X197714Y774869D01*
X197714Y775349D01*
X197712Y775446D01*
X197706Y775542D01*
X197697Y775638D01*
X197683Y775734D01*
X197666Y775829D01*
X197644Y775923D01*
X197619Y776016D01*
X197591Y776109D01*
X197558Y776200D01*
X197522Y776289D01*
X197482Y776377D01*
X197439Y776464D01*
X197393Y776549D01*
X197343Y776631D01*
X197289Y776712D01*
X197233Y776790D01*
X197173Y776866D01*
X197111Y776940D01*
X197045Y777011D01*
X196977Y777079D01*
X196906Y777145D01*
X196832Y777207D01*
X196756Y777267D01*
X196678Y777323D01*
X196597Y777377D01*
X196515Y777427D01*
X196430Y777473D01*
X196343Y777516D01*
X196255Y777556D01*
X196166Y777592D01*
X196075Y777625D01*
X195982Y777653D01*
X195889Y777678D01*
X195795Y777700D01*
X195700Y777717D01*
X195604Y777731D01*
X195508Y777740D01*
X195412Y777746D01*
X195315Y777748D01*
X195218Y777746D01*
X195122Y777740D01*
X195026Y777731D01*
X194930Y777717D01*
X194835Y777700D01*
X194741Y777678D01*
X194648Y777653D01*
X194555Y777625D01*
X194464Y777592D01*
X194375Y777556D01*
X194287Y777516D01*
X194200Y777473D01*
X194116Y777427D01*
X194033Y777377D01*
X193952Y777323D01*
X193874Y777267D01*
X193798Y777207D01*
X193724Y777145D01*
X193653Y777079D01*
X193585Y777011D01*
X193519Y776940D01*
X193457Y776866D01*
X193397Y776790D01*
X193341Y776712D01*
X193287Y776631D01*
X193237Y776549D01*
X193191Y776464D01*
X193148Y776377D01*
X193108Y776289D01*
X193072Y776200D01*
X193039Y776109D01*
X193011Y776016D01*
X192986Y775923D01*
X192964Y775829D01*
X192947Y775734D01*
X192933Y775638D01*
X192924Y775542D01*
X192918Y775446D01*
X192916Y775349D01*
X192916Y772950D01*
X192918Y772827D01*
X192924Y772704D01*
X192934Y772581D01*
X192948Y772459D01*
X192965Y772337D01*
X192987Y772216D01*
X193012Y772096D01*
X193042Y771976D01*
X193075Y771858D01*
X193112Y771741D01*
X193152Y771624D01*
X193196Y771510D01*
X193244Y771396D01*
X193296Y771285D01*
X193351Y771175D01*
X193410Y771067D01*
X193472Y770960D01*
X193537Y770856D01*
X193606Y770754D01*
X193678Y770654D01*
X193753Y770557D01*
X193832Y770462D01*
X193913Y770370D01*
X193997Y770280D01*
X194084Y770193D01*
X194174Y770109D01*
X194266Y770028D01*
X194361Y769949D01*
X194458Y769874D01*
X194558Y769802D01*
X194660Y769733D01*
X194764Y769668D01*
X194871Y769606D01*
X194979Y769547D01*
X195089Y769492D01*
X195200Y769440D01*
X195314Y769392D01*
X195428Y769348D01*
X195545Y769308D01*
X195662Y769271D01*
X195780Y769238D01*
X195900Y769208D01*
X196020Y769183D01*
X196141Y769161D01*
X196263Y769144D01*
X196385Y769130D01*
X196508Y769120D01*
X196631Y769114D01*
X196754Y769112D01*
D13*
X101600Y49530D02*
X101602Y49717D01*
X101609Y49904D01*
X101621Y50091D01*
X101637Y50277D01*
X101657Y50463D01*
X101682Y50648D01*
X101712Y50833D01*
X101746Y51017D01*
X101785Y51200D01*
X101828Y51382D01*
X101876Y51562D01*
X101928Y51742D01*
X101985Y51920D01*
X102045Y52097D01*
X102111Y52272D01*
X102180Y52446D01*
X102254Y52618D01*
X102332Y52788D01*
X102414Y52956D01*
X102500Y53122D01*
X102590Y53286D01*
X102684Y53447D01*
X102782Y53607D01*
X102884Y53763D01*
X102990Y53918D01*
X103100Y54069D01*
X103213Y54218D01*
X103330Y54364D01*
X103450Y54507D01*
X103574Y54647D01*
X103701Y54784D01*
X103832Y54918D01*
X103966Y55049D01*
X104103Y55176D01*
X104243Y55300D01*
X104386Y55420D01*
X104532Y55537D01*
X104681Y55650D01*
X104832Y55760D01*
X104987Y55866D01*
X105143Y55968D01*
X105303Y56066D01*
X105464Y56160D01*
X105628Y56250D01*
X105794Y56336D01*
X105962Y56418D01*
X106132Y56496D01*
X106304Y56570D01*
X106478Y56639D01*
X106653Y56705D01*
X106830Y56765D01*
X107008Y56822D01*
X107188Y56874D01*
X107368Y56922D01*
X107550Y56965D01*
X107733Y57004D01*
X107917Y57038D01*
X108102Y57068D01*
X108287Y57093D01*
X108473Y57113D01*
X108659Y57129D01*
X108846Y57141D01*
X109033Y57148D01*
X109220Y57150D01*
X109407Y57148D01*
X109594Y57141D01*
X109781Y57129D01*
X109967Y57113D01*
X110153Y57093D01*
X110338Y57068D01*
X110523Y57038D01*
X110707Y57004D01*
X110890Y56965D01*
X111072Y56922D01*
X111252Y56874D01*
X111432Y56822D01*
X111610Y56765D01*
X111787Y56705D01*
X111962Y56639D01*
X112136Y56570D01*
X112308Y56496D01*
X112478Y56418D01*
X112646Y56336D01*
X112812Y56250D01*
X112976Y56160D01*
X113137Y56066D01*
X113297Y55968D01*
X113453Y55866D01*
X113608Y55760D01*
X113759Y55650D01*
X113908Y55537D01*
X114054Y55420D01*
X114197Y55300D01*
X114337Y55176D01*
X114474Y55049D01*
X114608Y54918D01*
X114739Y54784D01*
X114866Y54647D01*
X114990Y54507D01*
X115110Y54364D01*
X115227Y54218D01*
X115340Y54069D01*
X115450Y53918D01*
X115556Y53763D01*
X115658Y53607D01*
X115756Y53447D01*
X115850Y53286D01*
X115940Y53122D01*
X116026Y52956D01*
X116108Y52788D01*
X116186Y52618D01*
X116260Y52446D01*
X116329Y52272D01*
X116395Y52097D01*
X116455Y51920D01*
X116512Y51742D01*
X116564Y51562D01*
X116612Y51382D01*
X116655Y51200D01*
X116694Y51017D01*
X116728Y50833D01*
X116758Y50648D01*
X116783Y50463D01*
X116803Y50277D01*
X116819Y50091D01*
X116831Y49904D01*
X116838Y49717D01*
X116840Y49530D01*
X116838Y49343D01*
X116831Y49156D01*
X116819Y48969D01*
X116803Y48783D01*
X116783Y48597D01*
X116758Y48412D01*
X116728Y48227D01*
X116694Y48043D01*
X116655Y47860D01*
X116612Y47678D01*
X116564Y47498D01*
X116512Y47318D01*
X116455Y47140D01*
X116395Y46963D01*
X116329Y46788D01*
X116260Y46614D01*
X116186Y46442D01*
X116108Y46272D01*
X116026Y46104D01*
X115940Y45938D01*
X115850Y45774D01*
X115756Y45613D01*
X115658Y45453D01*
X115556Y45297D01*
X115450Y45142D01*
X115340Y44991D01*
X115227Y44842D01*
X115110Y44696D01*
X114990Y44553D01*
X114866Y44413D01*
X114739Y44276D01*
X114608Y44142D01*
X114474Y44011D01*
X114337Y43884D01*
X114197Y43760D01*
X114054Y43640D01*
X113908Y43523D01*
X113759Y43410D01*
X113608Y43300D01*
X113453Y43194D01*
X113297Y43092D01*
X113137Y42994D01*
X112976Y42900D01*
X112812Y42810D01*
X112646Y42724D01*
X112478Y42642D01*
X112308Y42564D01*
X112136Y42490D01*
X111962Y42421D01*
X111787Y42355D01*
X111610Y42295D01*
X111432Y42238D01*
X111252Y42186D01*
X111072Y42138D01*
X110890Y42095D01*
X110707Y42056D01*
X110523Y42022D01*
X110338Y41992D01*
X110153Y41967D01*
X109967Y41947D01*
X109781Y41931D01*
X109594Y41919D01*
X109407Y41912D01*
X109220Y41910D01*
X109033Y41912D01*
X108846Y41919D01*
X108659Y41931D01*
X108473Y41947D01*
X108287Y41967D01*
X108102Y41992D01*
X107917Y42022D01*
X107733Y42056D01*
X107550Y42095D01*
X107368Y42138D01*
X107188Y42186D01*
X107008Y42238D01*
X106830Y42295D01*
X106653Y42355D01*
X106478Y42421D01*
X106304Y42490D01*
X106132Y42564D01*
X105962Y42642D01*
X105794Y42724D01*
X105628Y42810D01*
X105464Y42900D01*
X105303Y42994D01*
X105143Y43092D01*
X104987Y43194D01*
X104832Y43300D01*
X104681Y43410D01*
X104532Y43523D01*
X104386Y43640D01*
X104243Y43760D01*
X104103Y43884D01*
X103966Y44011D01*
X103832Y44142D01*
X103701Y44276D01*
X103574Y44413D01*
X103450Y44553D01*
X103330Y44696D01*
X103213Y44842D01*
X103100Y44991D01*
X102990Y45142D01*
X102884Y45297D01*
X102782Y45453D01*
X102684Y45613D01*
X102590Y45774D01*
X102500Y45938D01*
X102414Y46104D01*
X102332Y46272D01*
X102254Y46442D01*
X102180Y46614D01*
X102111Y46788D01*
X102045Y46963D01*
X101985Y47140D01*
X101928Y47318D01*
X101876Y47498D01*
X101828Y47678D01*
X101785Y47860D01*
X101746Y48043D01*
X101712Y48227D01*
X101682Y48412D01*
X101657Y48597D01*
X101637Y48783D01*
X101621Y48969D01*
X101609Y49156D01*
X101602Y49343D01*
X101600Y49530D01*
D14*
X137900Y58800D03*
D15*
X138500Y58400D03*
D16*
X139100Y58000D03*
D17*
X139500Y57600D03*
X139900Y57200D03*
D18*
X140100Y56800D03*
D19*
X140300Y56400D03*
D20*
X157300Y56000D03*
D21*
X134100Y56000D03*
D22*
X157900Y55600D03*
D23*
X146700Y55600D03*
D24*
X140700Y55600D03*
D25*
X135500Y55600D03*
D22*
X123900Y55600D03*
D26*
X158300Y55200D03*
D27*
X146500Y55200D03*
D28*
X140700Y55200D03*
D29*
X135700Y55200D03*
D30*
X123700Y55200D03*
D26*
X158700Y54800D03*
D25*
X146300Y54800D03*
D31*
X140500Y54800D03*
D29*
X135700Y54800D03*
D32*
X123500Y54800D03*
X159100Y54400D03*
D25*
X146300Y54400D03*
D31*
X140500Y54400D03*
D29*
X135700Y54400D03*
D33*
X123300Y54400D03*
D30*
X159300Y54000D03*
D25*
X146300Y54000D03*
D23*
X140300Y54000D03*
D29*
X135700Y54000D03*
D34*
X123300Y54000D03*
D32*
X159500Y53600D03*
D25*
X146300Y53600D03*
D35*
X140100Y53600D03*
D29*
X135700Y53600D03*
D36*
X123100Y53600D03*
D33*
X159700Y53200D03*
D35*
X150500Y53200D03*
D27*
X146500Y53200D03*
D37*
X139900Y53200D03*
D29*
X135700Y53200D03*
D37*
X131100Y53200D03*
D38*
X123100Y53200D03*
D32*
X159900Y52800D03*
D36*
X149100Y52800D03*
D37*
X139900Y52800D03*
D29*
X135700Y52800D03*
D35*
X130900Y52800D03*
D38*
X123100Y52800D03*
D32*
X159900Y52400D03*
D34*
X149300Y52400D03*
D27*
X139700Y52400D03*
D29*
X135700Y52400D03*
D23*
X130700Y52400D03*
D39*
X122900Y52400D03*
D33*
X160100Y52000D03*
D34*
X149300Y52000D03*
D25*
X139500Y52000D03*
D29*
X135700Y52000D03*
D31*
X130500Y52000D03*
D40*
X123100Y52000D03*
D33*
X160100Y51600D03*
D35*
X152100Y51600D03*
D25*
X146300Y51600D03*
D29*
X139300Y51600D03*
X135700Y51600D03*
D28*
X130300Y51600D03*
D40*
X123100Y51600D03*
D33*
X160100Y51200D03*
D37*
X152300Y51200D03*
D29*
X146100Y51200D03*
X139300Y51200D03*
X135700Y51200D03*
D28*
X130300Y51200D03*
D41*
X123300Y51200D03*
D33*
X160100Y50800D03*
D37*
X152300Y50800D03*
D29*
X146100Y50800D03*
D42*
X142500Y50800D03*
D43*
X139100Y50800D03*
D29*
X135700Y50800D03*
D28*
X130300Y50800D03*
D41*
X123300Y50800D03*
D33*
X160100Y50400D03*
D37*
X152300Y50400D03*
D29*
X146100Y50400D03*
D43*
X142300Y50400D03*
D42*
X138900Y50400D03*
D29*
X135700Y50400D03*
D28*
X130300Y50400D03*
D41*
X123300Y50400D03*
D33*
X160100Y50000D03*
D37*
X152300Y50000D03*
D29*
X146100Y50000D03*
D43*
X142300Y50000D03*
D29*
X135700Y50000D03*
D28*
X130300Y50000D03*
D41*
X123300Y50000D03*
D33*
X160100Y49600D03*
D28*
X151100Y49600D03*
D29*
X146100Y49600D03*
X142100Y49600D03*
X135700Y49600D03*
D31*
X130500Y49600D03*
D24*
X123500Y49600D03*
D32*
X159900Y49200D03*
D28*
X151100Y49200D03*
D29*
X146100Y49200D03*
D25*
X141900Y49200D03*
D29*
X135700Y49200D03*
D31*
X130500Y49200D03*
D24*
X123500Y49200D03*
D32*
X159900Y48800D03*
D31*
X150900Y48800D03*
D29*
X146100Y48800D03*
D27*
X141700Y48800D03*
D29*
X135700Y48800D03*
D23*
X130700Y48800D03*
D24*
X123900Y48800D03*
D33*
X159700Y48400D03*
D23*
X150700Y48400D03*
D29*
X146100Y48400D03*
D27*
X141700Y48400D03*
D29*
X135700Y48400D03*
D35*
X130900Y48400D03*
D24*
X123900Y48400D03*
D32*
X159500Y48000D03*
D27*
X150500Y48000D03*
D29*
X146100Y48000D03*
D37*
X141500Y48000D03*
D29*
X135700Y48000D03*
D25*
X131500Y48000D03*
D41*
X124100Y48000D03*
D32*
X159500Y47600D03*
D29*
X146100Y47600D03*
D35*
X141300Y47600D03*
D29*
X135700Y47600D03*
D24*
X124300Y47600D03*
D32*
X159100Y47200D03*
D29*
X146100Y47200D03*
D23*
X141100Y47200D03*
D29*
X135700Y47200D03*
D41*
X124500Y47200D03*
D30*
X158900Y46800D03*
D29*
X146100Y46800D03*
D23*
X141100Y46800D03*
D29*
X135700Y46800D03*
D41*
X124900Y46800D03*
D30*
X158500Y46400D03*
D25*
X146300Y46400D03*
D31*
X140900Y46400D03*
D29*
X135700Y46400D03*
D40*
X125100Y46400D03*
D44*
X158100Y46000D03*
D37*
X146300Y46000D03*
D45*
X140900Y46000D03*
D25*
X135500Y46000D03*
D38*
X125500Y46000D03*
D22*
X157500Y45600D03*
D23*
X146700Y45600D03*
D24*
X140700Y45600D03*
D27*
X135700Y45600D03*
D36*
X126300Y45600D03*
D46*
X142500Y45200D03*
D47*
X142500Y44800D03*
D48*
X142300Y44400D03*
D49*
X142100Y44000D03*
D50*
X141900Y43600D03*
D51*
X141500Y43200D03*
D52*
X141100Y42800D03*
D53*
X138850Y779080D03*
D54*
X138250Y778480D03*
D55*
X138250Y777880D03*
D56*
X137950Y777280D03*
D57*
X137950Y776680D03*
D58*
X137950Y776080D03*
D59*
X137950Y775480D03*
D60*
X172450Y774880D03*
D61*
X161950Y774880D03*
D62*
X145150Y774880D03*
D63*
X124150Y774880D03*
D64*
X106150Y774880D03*
D65*
X173350Y774280D03*
D66*
X161950Y774280D03*
D67*
X151750Y774280D03*
D66*
X140950Y774280D03*
D68*
X123850Y774280D03*
D69*
X105250Y774280D03*
D65*
X173950Y773680D03*
X161950Y773680D03*
D70*
X151750Y773680D03*
D60*
X141250Y773680D03*
D61*
X124150Y773680D03*
D68*
X104650Y773680D03*
D65*
X174550Y773080D03*
X161950Y773080D03*
D71*
X152050Y773080D03*
D65*
X141550Y773080D03*
D66*
X124150Y773080D03*
D68*
X104050Y773080D03*
D66*
X174550Y772480D03*
D72*
X161950Y772480D03*
D73*
X152650Y772480D03*
D74*
X141850Y772480D03*
D60*
X123850Y772480D03*
D68*
X104050Y772480D03*
D75*
X174850Y771880D03*
D72*
X161950Y771880D03*
D76*
X152950Y771880D03*
D74*
X141850Y771880D03*
D65*
X124150Y771880D03*
D68*
X103450Y771880D03*
D77*
X174850Y771280D03*
D78*
X162250Y771280D03*
D76*
X153550Y771280D03*
D72*
X142150Y771280D03*
D74*
X123850Y771280D03*
D68*
X103450Y771280D03*
D79*
X175150Y770680D03*
D67*
X161950Y770680D03*
D80*
X153850Y770680D03*
D72*
X142150Y770680D03*
D76*
X133150Y770680D03*
D72*
X124150Y770680D03*
D73*
X114850Y770680D03*
D68*
X103450Y770680D03*
X174850Y770080D03*
D81*
X162250Y770080D03*
D76*
X154150Y770080D03*
D72*
X142150Y770080D03*
D82*
X133150Y770080D03*
D72*
X124150Y770080D03*
D73*
X114850Y770080D03*
D68*
X102850Y770080D03*
D83*
X175150Y769480D03*
D70*
X161950Y769480D03*
D76*
X154150Y769480D03*
D78*
X142450Y769480D03*
D82*
X133150Y769480D03*
D72*
X124150Y769480D03*
D71*
X114850Y769480D03*
D68*
X102850Y769480D03*
D64*
X175150Y768880D03*
D70*
X161950Y768880D03*
D73*
X154450Y768880D03*
D78*
X142450Y768880D03*
D71*
X133450Y768880D03*
D78*
X123850Y768880D03*
D71*
X114850Y768880D03*
D68*
X102850Y768880D03*
D64*
X175150Y768280D03*
D82*
X161950Y768280D03*
X154150Y768280D03*
D84*
X149650Y768280D03*
D78*
X142450Y768280D03*
D70*
X133150Y768280D03*
D78*
X123850Y768280D03*
D71*
X114850Y768280D03*
D68*
X102850Y768280D03*
D85*
X174850Y767680D03*
D82*
X161950Y767680D03*
D72*
X152950Y767680D03*
D78*
X142450Y767680D03*
D70*
X133150Y767680D03*
D78*
X123850Y767680D03*
D71*
X114850Y767680D03*
D68*
X102850Y767680D03*
D85*
X174850Y767080D03*
D76*
X161950Y767080D03*
D72*
X152950Y767080D03*
D78*
X142450Y767080D03*
D70*
X133150Y767080D03*
D67*
X124150Y767080D03*
D71*
X114850Y767080D03*
D68*
X102850Y767080D03*
D63*
X174550Y766480D03*
D76*
X161950Y766480D03*
D74*
X153250Y766480D03*
D78*
X142450Y766480D03*
D70*
X133150Y766480D03*
D67*
X124150Y766480D03*
D71*
X114850Y766480D03*
D68*
X102850Y766480D03*
D63*
X174550Y765880D03*
D86*
X161950Y765880D03*
D74*
X153250Y765880D03*
D78*
X142450Y765880D03*
D70*
X133150Y765880D03*
D78*
X123850Y765880D03*
D71*
X114850Y765880D03*
D68*
X102850Y765880D03*
D87*
X174250Y765280D03*
D86*
X161950Y765280D03*
D65*
X153550Y765280D03*
D78*
X142450Y765280D03*
D70*
X133150Y765280D03*
D78*
X123850Y765280D03*
D71*
X114850Y765280D03*
D68*
X102850Y765280D03*
D63*
X173950Y764680D03*
D65*
X153550Y764680D03*
D78*
X142450Y764680D03*
D71*
X133450Y764680D03*
D78*
X123850Y764680D03*
D71*
X114850Y764680D03*
D68*
X102850Y764680D03*
D63*
X173350Y764080D03*
D60*
X153850Y764080D03*
D78*
X142450Y764080D03*
D82*
X133150Y764080D03*
D72*
X124150Y764080D03*
D71*
X114850Y764080D03*
D68*
X102850Y764080D03*
D63*
X173350Y763480D03*
D60*
X153850Y763480D03*
D72*
X142150Y763480D03*
D82*
X133150Y763480D03*
D72*
X124150Y763480D03*
D73*
X114850Y763480D03*
D79*
X103150Y763480D03*
D63*
X172750Y762880D03*
D66*
X154150Y762880D03*
D76*
X144550Y762880D03*
D73*
X140050Y762880D03*
D76*
X133150Y762880D03*
D73*
X126250Y762880D03*
D76*
X121750Y762880D03*
D80*
X114850Y762880D03*
D68*
X103450Y762880D03*
D85*
X172450Y762280D03*
D66*
X154150Y762280D03*
D80*
X144850Y762280D03*
X139450Y762280D03*
X126850Y762280D03*
D76*
X121150Y762280D03*
D68*
X103450Y762280D03*
D85*
X171850Y761680D03*
D75*
X154450Y761680D03*
D80*
X144850Y761680D03*
D76*
X139150Y761680D03*
X127150Y761680D03*
X121150Y761680D03*
D79*
X103750Y761680D03*
D64*
X171550Y761080D03*
D75*
X154450Y761080D03*
D86*
X145150Y761080D03*
D76*
X139150Y761080D03*
X127150Y761080D03*
X120550Y761080D03*
D68*
X104050Y761080D03*
D64*
X170950Y760480D03*
D61*
X154750Y760480D03*
D80*
X144850Y760480D03*
D73*
X138850Y760480D03*
X127450Y760480D03*
X120250Y760480D03*
D68*
X104650Y760480D03*
D69*
X170650Y759880D03*
D61*
X154750Y759880D03*
D80*
X144850Y759880D03*
D82*
X138550Y759880D03*
X127750Y759880D03*
D71*
X120250Y759880D03*
D83*
X104950Y759880D03*
D69*
X170050Y759280D03*
D77*
X155050Y759280D03*
D76*
X145150Y759280D03*
D81*
X138250Y759280D03*
X128050Y759280D03*
D70*
X119950Y759280D03*
D83*
X105550Y759280D03*
D59*
X137950Y758680D03*
D58*
X137950Y758080D03*
D57*
X137950Y757480D03*
D56*
X137950Y756880D03*
D55*
X138250Y756280D03*
D54*
X138250Y755680D03*
D53*
X138850Y755080D03*
D88*
X410620Y803970D03*
D89*
X409220Y802570D03*
D90*
X407820Y801170D03*
D91*
X407120Y799770D03*
D92*
X406420Y798370D03*
D93*
X405720Y796970D03*
D94*
X405720Y795570D03*
D95*
X461720Y794170D03*
D96*
X391720Y794170D03*
D97*
X335720Y794170D03*
D98*
X481320Y792770D03*
D99*
X447020Y792770D03*
D100*
X411320Y792770D03*
D101*
X376320Y792770D03*
D102*
X332920Y792770D03*
D98*
X481320Y791370D03*
D103*
X447720Y791370D03*
D104*
X411320Y791370D03*
D105*
X376320Y791370D03*
D106*
X331520Y791370D03*
D107*
X482020Y789970D03*
D108*
X448420Y789970D03*
D109*
X410620Y789970D03*
D110*
X376320Y789970D03*
D106*
X330120Y789970D03*
D98*
X482720Y788570D03*
D111*
X448420Y788570D03*
D112*
X409920Y788570D03*
D100*
X376320Y788570D03*
D113*
X329420Y788570D03*
D107*
X483420Y787170D03*
D114*
X449120Y787170D03*
D112*
X409920Y787170D03*
D104*
X376320Y787170D03*
D113*
X328020Y787170D03*
D98*
X484120Y785770D03*
D105*
X449120Y785770D03*
D109*
X410620Y785770D03*
X377020Y785770D03*
D113*
X328020Y785770D03*
D107*
X484820Y784370D03*
D105*
X449120Y784370D03*
D100*
X425320Y784370D03*
D104*
X411320Y784370D03*
D115*
X393820Y784370D03*
D112*
X376320Y784370D03*
D115*
X358820Y784370D03*
D116*
X327320Y784370D03*
D107*
X484820Y782970D03*
D110*
X449120Y782970D03*
D103*
X419720Y782970D03*
D100*
X393120Y782970D03*
D117*
X377020Y782970D03*
D110*
X358120Y782970D03*
D113*
X326620Y782970D03*
D107*
X486220Y781570D03*
D110*
X449120Y781570D03*
D107*
X420420Y781570D03*
D100*
X393120Y781570D03*
D117*
X377020Y781570D03*
D105*
X358120Y781570D03*
D116*
X325920Y781570D03*
D107*
X486220Y780170D03*
D118*
X449820Y780170D03*
D98*
X421120Y780170D03*
D100*
X393120Y780170D03*
D117*
X377020Y780170D03*
D119*
X358820Y780170D03*
D116*
X325920Y780170D03*
D107*
X487620Y778770D03*
D100*
X449120Y778770D03*
D115*
X430220Y778770D03*
D112*
X409920Y778770D03*
D100*
X393120Y778770D03*
D120*
X377720Y778770D03*
D114*
X358120Y778770D03*
D116*
X325920Y778770D03*
D107*
X487620Y777370D03*
D120*
X464520Y777370D03*
D100*
X449120Y777370D03*
D104*
X430920Y777370D03*
D112*
X409920Y777370D03*
D115*
X393820Y777370D03*
D120*
X377720Y777370D03*
D114*
X358120Y777370D03*
D116*
X325920Y777370D03*
D103*
X488320Y775970D03*
D117*
X463820Y775970D03*
D115*
X448420Y775970D03*
D104*
X430920Y775970D03*
D117*
X409220Y775970D03*
X378420Y775970D03*
D114*
X358120Y775970D03*
D116*
X325920Y775970D03*
D103*
X488320Y774570D03*
D112*
X464520Y774570D03*
D115*
X448420Y774570D03*
D104*
X430920Y774570D03*
D117*
X409220Y774570D03*
X378420Y774570D03*
D114*
X358120Y774570D03*
D116*
X325920Y774570D03*
D103*
X489720Y773170D03*
D109*
X463820Y773170D03*
D104*
X447720Y773170D03*
X430920Y773170D03*
D117*
X409220Y773170D03*
D112*
X379120Y773170D03*
D114*
X358120Y773170D03*
D116*
X325920Y773170D03*
D103*
X489720Y771770D03*
D104*
X447720Y771770D03*
D110*
X428120Y771770D03*
D117*
X409220Y771770D03*
D112*
X379120Y771770D03*
D119*
X358820Y771770D03*
D116*
X325920Y771770D03*
D103*
X491120Y770370D03*
D104*
X446320Y770370D03*
D110*
X426720Y770370D03*
D117*
X409220Y770370D03*
D109*
X378420Y770370D03*
D105*
X358120Y770370D03*
D116*
X325920Y770370D03*
D103*
X491120Y768970D03*
D104*
X446320Y768970D03*
D118*
X426020Y768970D03*
D117*
X409220Y768970D03*
D109*
X378420Y768970D03*
D121*
X358820Y768970D03*
D116*
X325920Y768970D03*
D108*
X491820Y767570D03*
D109*
X445620Y767570D03*
D100*
X425320Y767570D03*
D117*
X409220Y767570D03*
D109*
X378420Y767570D03*
D118*
X358820Y767570D03*
D116*
X327320Y767570D03*
D103*
X492520Y766170D03*
D104*
X444920Y766170D03*
D109*
X424620Y766170D03*
D117*
X409220Y766170D03*
D115*
X393820Y766170D03*
D109*
X377020Y766170D03*
D104*
X358120Y766170D03*
D116*
X327320Y766170D03*
D108*
X493220Y764770D03*
D110*
X464520Y764770D03*
D104*
X443520Y764770D03*
D117*
X409220Y764770D03*
D115*
X393820Y764770D03*
D109*
X377020Y764770D03*
D113*
X328020Y764770D03*
D103*
X493920Y763370D03*
D105*
X464520Y763370D03*
D104*
X443520Y763370D03*
D117*
X409220Y763370D03*
D100*
X393120Y763370D03*
D109*
X375620Y763370D03*
D113*
X329420Y763370D03*
D108*
X494620Y761970D03*
D105*
X464520Y761970D03*
D104*
X442120Y761970D03*
D112*
X409920Y761970D03*
D100*
X393120Y761970D03*
D104*
X374920Y761970D03*
D113*
X329420Y761970D03*
D108*
X494620Y760570D03*
D114*
X464520Y760570D03*
D115*
X441420Y760570D03*
D109*
X410620Y760570D03*
D100*
X393120Y760570D03*
D115*
X374220Y760570D03*
D113*
X330820Y760570D03*
D107*
X494620Y759170D03*
D114*
X464520Y759170D03*
D118*
X440020Y759170D03*
D115*
X410620Y759170D03*
D118*
X392420Y759170D03*
D100*
X373520Y759170D03*
D106*
X332920Y759170D03*
D98*
X493920Y757770D03*
D101*
X464520Y757770D03*
D119*
X440020Y757770D03*
D118*
X412020Y757770D03*
D110*
X393120Y757770D03*
D121*
X372820Y757770D03*
D102*
X334320Y757770D03*
D122*
X413420Y756370D03*
D123*
X414120Y754970D03*
D124*
X414820Y753570D03*
D125*
X416920Y752170D03*
D126*
X417620Y750770D03*
D127*
X419720Y749370D03*
D128*
X421820Y747970D03*
M02*
