G04 EAGLE Gerber RS-274X export*
G75*
%MOMM*%
%FSLAX34Y34*%
%LPD*%
%INSoldermask Top*%
%IPPOS*%
%AMOC8*
5,1,8,0,0,1.08239X$1,22.5*%
G01*
%ADD10C,3.251200*%
%ADD11R,1.403200X1.403200*%
%ADD12R,1.503200X1.803200*%
%ADD13R,2.103200X1.303200*%
%ADD14R,1.803200X1.503200*%
%ADD15R,1.403200X1.003200*%
%ADD16C,1.828800*%
%ADD17R,1.727200X0.965200*%
%ADD18R,0.750300X1.707000*%
%ADD19R,1.707000X0.750300*%
%ADD20P,1.962157X8X292.500000*%
%ADD21C,1.346200*%
%ADD22R,1.003200X1.403200*%
%ADD23P,1.962157X8X112.500000*%
%ADD24R,1.203200X2.003200*%
%ADD25C,0.343072*%
%ADD26R,2.703200X2.703200*%
%ADD27R,1.603200X1.603200*%
%ADD28R,1.403200X2.203200*%
%ADD29R,1.203200X1.303200*%
%ADD30R,1.303200X1.203200*%
%ADD31R,0.503200X1.653200*%
%ADD32R,0.803200X1.653200*%
%ADD33R,0.753200X1.653200*%
%ADD34C,0.853200*%
%ADD35R,1.353200X1.203200*%
%ADD36C,1.053200*%
%ADD37R,0.753200X1.403200*%
%ADD38R,1.503200X1.703200*%
%ADD39C,2.082800*%
%ADD40C,0.372991*%
%ADD41R,1.203200X2.703200*%
%ADD42R,2.203200X1.403200*%
%ADD43C,3.454400*%
%ADD44R,0.753200X1.553200*%
%ADD45R,1.803200X2.703200*%
%ADD46C,0.653200*%
%ADD47R,2.103200X0.803200*%
%ADD48R,1.103200X0.553200*%
%ADD49R,1.203200X0.553200*%
%ADD50P,1.599989X8X22.500000*%
%ADD51P,1.843527X8X22.500000*%
%ADD52P,1.363378X8X22.500000*%
%ADD53P,1.092781X8X22.500000*%

G36*
X637066Y49741D02*
X637066Y49741D01*
X637072Y49747D01*
X637077Y49743D01*
X638307Y50108D01*
X638312Y50115D01*
X638317Y50113D01*
X639436Y50743D01*
X639439Y50750D01*
X639445Y50749D01*
X640395Y51612D01*
X640396Y51620D01*
X640402Y51620D01*
X641136Y52673D01*
X641136Y52681D01*
X641141Y52683D01*
X641623Y53873D01*
X641621Y53878D01*
X641625Y53881D01*
X641624Y53882D01*
X641626Y53883D01*
X641831Y55150D01*
X641828Y55155D01*
X641831Y55158D01*
X641831Y67158D01*
X641828Y67162D01*
X641831Y67165D01*
X641676Y68287D01*
X641671Y68292D01*
X641674Y68296D01*
X641303Y69367D01*
X641297Y69371D01*
X641299Y69376D01*
X640726Y70353D01*
X640720Y70356D01*
X640721Y70361D01*
X639968Y71208D01*
X639961Y71210D01*
X639961Y71215D01*
X639058Y71899D01*
X639051Y71899D01*
X639050Y71904D01*
X638031Y72399D01*
X638024Y72397D01*
X638022Y72402D01*
X636925Y72689D01*
X636919Y72686D01*
X636916Y72690D01*
X635785Y72757D01*
X635779Y72757D01*
X634648Y72690D01*
X634643Y72685D01*
X634639Y72689D01*
X633542Y72402D01*
X633538Y72396D01*
X633533Y72399D01*
X632514Y71904D01*
X632511Y71898D01*
X632506Y71899D01*
X631603Y71215D01*
X631601Y71208D01*
X631596Y71208D01*
X630843Y70361D01*
X630843Y70354D01*
X630838Y70353D01*
X630265Y69376D01*
X630266Y69373D01*
X630265Y69372D01*
X630266Y69371D01*
X630266Y69369D01*
X630261Y69367D01*
X629890Y68296D01*
X629892Y68291D01*
X629889Y68289D01*
X629889Y68288D01*
X629888Y68287D01*
X629733Y67165D01*
X629736Y67160D01*
X629733Y67158D01*
X629733Y55158D01*
X629736Y55153D01*
X629733Y55150D01*
X629938Y53883D01*
X629944Y53877D01*
X629941Y53873D01*
X630423Y52683D01*
X630430Y52679D01*
X630428Y52673D01*
X631162Y51620D01*
X631170Y51618D01*
X631169Y51612D01*
X632119Y50749D01*
X632128Y50748D01*
X632128Y50743D01*
X633247Y50113D01*
X633255Y50114D01*
X633257Y50108D01*
X634487Y49743D01*
X634495Y49746D01*
X634498Y49741D01*
X635779Y49659D01*
X635783Y49662D01*
X635785Y49659D01*
X637066Y49741D01*
G37*
G36*
X550666Y49741D02*
X550666Y49741D01*
X550672Y49747D01*
X550677Y49743D01*
X551907Y50108D01*
X551912Y50115D01*
X551917Y50113D01*
X553036Y50743D01*
X553039Y50750D01*
X553045Y50749D01*
X553995Y51612D01*
X553996Y51620D01*
X554002Y51620D01*
X554736Y52673D01*
X554736Y52681D01*
X554741Y52683D01*
X555223Y53873D01*
X555221Y53878D01*
X555225Y53881D01*
X555224Y53882D01*
X555226Y53883D01*
X555431Y55150D01*
X555428Y55155D01*
X555431Y55158D01*
X555431Y67158D01*
X555428Y67162D01*
X555431Y67165D01*
X555276Y68287D01*
X555271Y68292D01*
X555274Y68296D01*
X554903Y69367D01*
X554897Y69371D01*
X554899Y69376D01*
X554326Y70353D01*
X554320Y70356D01*
X554321Y70361D01*
X553568Y71208D01*
X553561Y71210D01*
X553561Y71215D01*
X552658Y71899D01*
X552651Y71899D01*
X552650Y71904D01*
X551631Y72399D01*
X551624Y72397D01*
X551622Y72402D01*
X550525Y72689D01*
X550519Y72686D01*
X550516Y72690D01*
X549385Y72757D01*
X549379Y72757D01*
X548248Y72690D01*
X548243Y72685D01*
X548239Y72689D01*
X547142Y72402D01*
X547138Y72396D01*
X547133Y72399D01*
X546114Y71904D01*
X546111Y71898D01*
X546106Y71899D01*
X545203Y71215D01*
X545201Y71208D01*
X545196Y71208D01*
X544443Y70361D01*
X544443Y70354D01*
X544438Y70353D01*
X543865Y69376D01*
X543866Y69373D01*
X543865Y69372D01*
X543866Y69371D01*
X543866Y69369D01*
X543861Y69367D01*
X543490Y68296D01*
X543492Y68291D01*
X543489Y68289D01*
X543489Y68288D01*
X543488Y68287D01*
X543333Y67165D01*
X543336Y67160D01*
X543333Y67158D01*
X543333Y55158D01*
X543336Y55153D01*
X543333Y55150D01*
X543538Y53883D01*
X543544Y53877D01*
X543541Y53873D01*
X544023Y52683D01*
X544030Y52679D01*
X544028Y52673D01*
X544762Y51620D01*
X544770Y51618D01*
X544769Y51612D01*
X545719Y50749D01*
X545728Y50748D01*
X545728Y50743D01*
X546847Y50113D01*
X546855Y50114D01*
X546857Y50108D01*
X548087Y49743D01*
X548095Y49746D01*
X548098Y49741D01*
X549379Y49659D01*
X549383Y49662D01*
X549385Y49659D01*
X550666Y49741D01*
G37*
G36*
X636953Y10469D02*
X636953Y10469D01*
X636958Y10474D01*
X636962Y10471D01*
X638085Y10806D01*
X638089Y10812D01*
X638093Y10810D01*
X639129Y11358D01*
X639132Y11364D01*
X639137Y11363D01*
X640045Y12102D01*
X640047Y12109D01*
X640052Y12109D01*
X640799Y13011D01*
X640799Y13019D01*
X640805Y13019D01*
X641361Y14050D01*
X641360Y14057D01*
X641365Y14059D01*
X641709Y15178D01*
X641707Y15185D01*
X641711Y15188D01*
X641831Y16353D01*
X641829Y16356D01*
X641831Y16358D01*
X641831Y22358D01*
X641829Y22361D01*
X641831Y22363D01*
X641720Y23539D01*
X641715Y23544D01*
X641718Y23548D01*
X641380Y24680D01*
X641374Y24684D01*
X641376Y24689D01*
X640824Y25733D01*
X640817Y25736D01*
X640819Y25741D01*
X640073Y26657D01*
X640066Y26658D01*
X640066Y26664D01*
X639157Y27417D01*
X639149Y27417D01*
X639149Y27422D01*
X638109Y27983D01*
X638102Y27982D01*
X638100Y27987D01*
X636971Y28334D01*
X636965Y28332D01*
X636962Y28336D01*
X635787Y28457D01*
X635780Y28453D01*
X635776Y28457D01*
X634436Y28300D01*
X634430Y28295D01*
X634425Y28298D01*
X633154Y27847D01*
X633149Y27840D01*
X633144Y27842D01*
X632005Y27120D01*
X632002Y27112D01*
X631996Y27113D01*
X631046Y26155D01*
X631045Y26147D01*
X631039Y26146D01*
X630326Y25001D01*
X630327Y24993D01*
X630321Y24991D01*
X629881Y23715D01*
X629883Y23708D01*
X629879Y23705D01*
X629733Y22363D01*
X629735Y22360D01*
X629733Y22358D01*
X629733Y16358D01*
X629735Y16355D01*
X629733Y16352D01*
X629888Y15023D01*
X629894Y15017D01*
X629891Y15013D01*
X630338Y13752D01*
X630345Y13747D01*
X630343Y13742D01*
X631060Y12612D01*
X631067Y12609D01*
X631066Y12603D01*
X632017Y11661D01*
X632025Y11660D01*
X632025Y11654D01*
X633161Y10947D01*
X633169Y10948D01*
X633171Y10942D01*
X634436Y10506D01*
X634441Y10507D01*
X634442Y10507D01*
X634445Y10507D01*
X634447Y10503D01*
X635777Y10359D01*
X635783Y10363D01*
X635787Y10359D01*
X636953Y10469D01*
G37*
G36*
X550553Y10469D02*
X550553Y10469D01*
X550558Y10474D01*
X550562Y10471D01*
X551685Y10806D01*
X551689Y10812D01*
X551693Y10810D01*
X552729Y11358D01*
X552732Y11364D01*
X552737Y11363D01*
X553645Y12102D01*
X553647Y12109D01*
X553652Y12109D01*
X554399Y13011D01*
X554399Y13019D01*
X554405Y13019D01*
X554961Y14050D01*
X554960Y14057D01*
X554965Y14059D01*
X555309Y15178D01*
X555307Y15185D01*
X555311Y15188D01*
X555431Y16353D01*
X555429Y16356D01*
X555431Y16358D01*
X555431Y22358D01*
X555429Y22361D01*
X555431Y22363D01*
X555320Y23539D01*
X555315Y23544D01*
X555318Y23548D01*
X554980Y24680D01*
X554974Y24684D01*
X554976Y24689D01*
X554424Y25733D01*
X554417Y25736D01*
X554419Y25741D01*
X553673Y26657D01*
X553666Y26658D01*
X553666Y26664D01*
X552757Y27417D01*
X552749Y27417D01*
X552749Y27422D01*
X551709Y27983D01*
X551702Y27982D01*
X551700Y27987D01*
X550571Y28334D01*
X550565Y28332D01*
X550562Y28336D01*
X549387Y28457D01*
X549380Y28453D01*
X549376Y28457D01*
X548036Y28300D01*
X548030Y28295D01*
X548025Y28298D01*
X546754Y27847D01*
X546749Y27840D01*
X546744Y27842D01*
X545605Y27120D01*
X545602Y27112D01*
X545596Y27113D01*
X544646Y26155D01*
X544645Y26147D01*
X544639Y26146D01*
X543926Y25001D01*
X543927Y24993D01*
X543921Y24991D01*
X543481Y23715D01*
X543483Y23708D01*
X543479Y23705D01*
X543333Y22363D01*
X543335Y22360D01*
X543333Y22358D01*
X543333Y16358D01*
X543335Y16355D01*
X543333Y16352D01*
X543488Y15023D01*
X543494Y15017D01*
X543491Y15013D01*
X543938Y13752D01*
X543945Y13747D01*
X543943Y13742D01*
X544660Y12612D01*
X544667Y12609D01*
X544666Y12603D01*
X545617Y11661D01*
X545625Y11660D01*
X545625Y11654D01*
X546761Y10947D01*
X546769Y10948D01*
X546771Y10942D01*
X548036Y10506D01*
X548041Y10507D01*
X548042Y10507D01*
X548045Y10507D01*
X548047Y10503D01*
X549377Y10359D01*
X549383Y10363D01*
X549387Y10359D01*
X550553Y10469D01*
G37*
D10*
X60198Y41402D03*
X697230Y87122D03*
X52070Y778510D03*
D11*
X406740Y208280D03*
X385740Y208280D03*
D12*
X403200Y182880D03*
X384200Y182880D03*
D13*
X347260Y398710D03*
X384260Y421710D03*
X347260Y421710D03*
X384260Y398710D03*
D14*
X449580Y368910D03*
X449580Y349910D03*
D15*
X408940Y402480D03*
X408940Y420480D03*
X322580Y417940D03*
X322580Y399940D03*
D16*
X264160Y203200D03*
X264160Y228600D03*
X238760Y228600D03*
X238760Y203200D03*
X289560Y203200D03*
X289560Y228600D03*
D12*
X522580Y285750D03*
X503580Y285750D03*
D11*
X574380Y285750D03*
X553380Y285750D03*
D15*
X474980Y355490D03*
X474980Y373490D03*
D17*
X476250Y438150D03*
X527050Y438150D03*
X476250Y400050D03*
X527050Y400050D03*
D18*
X396300Y373820D03*
X388300Y373820D03*
X380300Y373820D03*
X372300Y373820D03*
X364300Y373820D03*
X356300Y373820D03*
X348300Y373820D03*
X340300Y373820D03*
D19*
X325950Y359470D03*
X325950Y351470D03*
X325950Y343470D03*
X325950Y335470D03*
X325950Y327470D03*
X325950Y319470D03*
X325950Y311470D03*
X325950Y303470D03*
D18*
X340300Y289120D03*
X348300Y289120D03*
X356300Y289120D03*
X364300Y289120D03*
X372300Y289120D03*
X380300Y289120D03*
X388300Y289120D03*
X396300Y289120D03*
D19*
X410650Y303470D03*
X410650Y311470D03*
X410650Y319470D03*
X410650Y327470D03*
X410650Y335470D03*
X410650Y343470D03*
X410650Y351470D03*
X410650Y359470D03*
D20*
X20320Y466090D03*
X45720Y466090D03*
X20320Y440690D03*
X45720Y440690D03*
X20320Y415290D03*
X45720Y415290D03*
X20320Y389890D03*
X45720Y389890D03*
X20320Y364490D03*
X45720Y364490D03*
X20320Y339090D03*
X45720Y339090D03*
X20320Y313690D03*
X45720Y313690D03*
X20320Y288290D03*
X45720Y288290D03*
X20320Y262890D03*
X45720Y262890D03*
X20320Y237490D03*
X45720Y237490D03*
X20320Y212090D03*
X45720Y212090D03*
X20320Y186690D03*
X45720Y186690D03*
X20320Y161290D03*
X45720Y161290D03*
X20320Y135890D03*
X45720Y135890D03*
X20320Y110490D03*
X45720Y110490D03*
X20320Y85090D03*
X45720Y85090D03*
D21*
X487426Y471932D03*
X462026Y459232D03*
X153162Y471170D03*
X380746Y461772D03*
D22*
X351680Y266700D03*
X369680Y266700D03*
D23*
X716280Y199390D03*
X690880Y199390D03*
X716280Y224790D03*
X690880Y224790D03*
X716280Y250190D03*
X690880Y250190D03*
X716280Y275590D03*
X690880Y275590D03*
X716280Y300990D03*
X690880Y300990D03*
X716280Y326390D03*
X690880Y326390D03*
X716280Y351790D03*
X690880Y351790D03*
X716280Y377190D03*
X690880Y377190D03*
X716280Y402590D03*
X690880Y402590D03*
X716280Y427990D03*
X690880Y427990D03*
X716280Y453390D03*
X690880Y453390D03*
D24*
X593120Y189230D03*
X565120Y189230D03*
D12*
X522580Y237490D03*
X503580Y237490D03*
X522580Y261620D03*
X503580Y261620D03*
D11*
X553380Y237490D03*
X574380Y237490D03*
X553380Y261620D03*
X574380Y261620D03*
D25*
X501149Y175071D02*
X501149Y168469D01*
X501149Y175071D02*
X502551Y175071D01*
X502551Y168469D01*
X501149Y168469D01*
X501149Y171728D02*
X502551Y171728D01*
X502551Y174987D02*
X501149Y174987D01*
X506149Y175071D02*
X506149Y168469D01*
X506149Y175071D02*
X507551Y175071D01*
X507551Y168469D01*
X506149Y168469D01*
X506149Y171728D02*
X507551Y171728D01*
X507551Y174987D02*
X506149Y174987D01*
X511149Y175071D02*
X511149Y168469D01*
X511149Y175071D02*
X512551Y175071D01*
X512551Y168469D01*
X511149Y168469D01*
X511149Y171728D02*
X512551Y171728D01*
X512551Y174987D02*
X511149Y174987D01*
X516149Y175071D02*
X516149Y168469D01*
X516149Y175071D02*
X517551Y175071D01*
X517551Y168469D01*
X516149Y168469D01*
X516149Y171728D02*
X517551Y171728D01*
X517551Y174987D02*
X516149Y174987D01*
X521149Y175071D02*
X521149Y168469D01*
X521149Y175071D02*
X522551Y175071D01*
X522551Y168469D01*
X521149Y168469D01*
X521149Y171728D02*
X522551Y171728D01*
X522551Y174987D02*
X521149Y174987D01*
X526149Y175071D02*
X526149Y168469D01*
X526149Y175071D02*
X527551Y175071D01*
X527551Y168469D01*
X526149Y168469D01*
X526149Y171728D02*
X527551Y171728D01*
X527551Y174987D02*
X526149Y174987D01*
X531049Y179971D02*
X537651Y179971D01*
X537651Y178569D01*
X531049Y178569D01*
X531049Y179971D01*
X531049Y184971D02*
X537651Y184971D01*
X537651Y183569D01*
X531049Y183569D01*
X531049Y184971D01*
X531049Y189971D02*
X537651Y189971D01*
X537651Y188569D01*
X531049Y188569D01*
X531049Y189971D01*
X531049Y194971D02*
X537651Y194971D01*
X537651Y193569D01*
X531049Y193569D01*
X531049Y194971D01*
X531049Y199971D02*
X537651Y199971D01*
X537651Y198569D01*
X531049Y198569D01*
X531049Y199971D01*
X531049Y204971D02*
X537651Y204971D01*
X537651Y203569D01*
X531049Y203569D01*
X531049Y204971D01*
X527551Y208469D02*
X527551Y215071D01*
X527551Y208469D02*
X526149Y208469D01*
X526149Y215071D01*
X527551Y215071D01*
X527551Y211728D02*
X526149Y211728D01*
X526149Y214987D02*
X527551Y214987D01*
X522551Y215071D02*
X522551Y208469D01*
X521149Y208469D01*
X521149Y215071D01*
X522551Y215071D01*
X522551Y211728D02*
X521149Y211728D01*
X521149Y214987D02*
X522551Y214987D01*
X517551Y215071D02*
X517551Y208469D01*
X516149Y208469D01*
X516149Y215071D01*
X517551Y215071D01*
X517551Y211728D02*
X516149Y211728D01*
X516149Y214987D02*
X517551Y214987D01*
X512551Y215071D02*
X512551Y208469D01*
X511149Y208469D01*
X511149Y215071D01*
X512551Y215071D01*
X512551Y211728D02*
X511149Y211728D01*
X511149Y214987D02*
X512551Y214987D01*
X507551Y215071D02*
X507551Y208469D01*
X506149Y208469D01*
X506149Y215071D01*
X507551Y215071D01*
X507551Y211728D02*
X506149Y211728D01*
X506149Y214987D02*
X507551Y214987D01*
X502551Y215071D02*
X502551Y208469D01*
X501149Y208469D01*
X501149Y215071D01*
X502551Y215071D01*
X502551Y211728D02*
X501149Y211728D01*
X501149Y214987D02*
X502551Y214987D01*
X497651Y203569D02*
X491049Y203569D01*
X491049Y204971D01*
X497651Y204971D01*
X497651Y203569D01*
X497651Y198569D02*
X491049Y198569D01*
X491049Y199971D01*
X497651Y199971D01*
X497651Y198569D01*
X497651Y193569D02*
X491049Y193569D01*
X491049Y194971D01*
X497651Y194971D01*
X497651Y193569D01*
X497651Y188569D02*
X491049Y188569D01*
X491049Y189971D01*
X497651Y189971D01*
X497651Y188569D01*
X497651Y183569D02*
X491049Y183569D01*
X491049Y184971D01*
X497651Y184971D01*
X497651Y183569D01*
X497651Y178569D02*
X491049Y178569D01*
X491049Y179971D01*
X497651Y179971D01*
X497651Y178569D01*
D26*
X514350Y191770D03*
D15*
X459740Y217280D03*
X459740Y199280D03*
X459740Y163720D03*
X459740Y181720D03*
D27*
X407120Y154940D03*
X370120Y154940D03*
D15*
X373380Y32910D03*
X373380Y50910D03*
D22*
X394860Y115570D03*
X412860Y115570D03*
D28*
X373380Y110520D03*
X373380Y82520D03*
D29*
X610108Y117974D03*
X610108Y100974D03*
D30*
X554110Y90932D03*
X571110Y90932D03*
D31*
X600082Y70358D03*
X595082Y70358D03*
D32*
X624832Y70358D03*
D33*
X617082Y70358D03*
D31*
X610082Y70358D03*
X605082Y70358D03*
X585082Y70358D03*
X590082Y70358D03*
D32*
X560332Y70358D03*
D33*
X568082Y70358D03*
D31*
X575082Y70358D03*
X580082Y70358D03*
D34*
X563682Y55908D03*
X621482Y55908D03*
D21*
X557784Y114046D03*
X605282Y138684D03*
D35*
X446730Y102470D03*
X446730Y77470D03*
X446730Y52470D03*
X503230Y102470D03*
X503230Y77470D03*
X503230Y52470D03*
D36*
X474980Y92470D03*
X474980Y62470D03*
D37*
X399440Y60659D03*
X408940Y60659D03*
X418440Y60659D03*
X418440Y86661D03*
X399440Y86661D03*
D38*
X338480Y182880D03*
X357480Y182880D03*
D39*
X711200Y132080D03*
X711200Y157480D03*
D15*
X357886Y228998D03*
X357886Y246998D03*
D40*
X70611Y692649D02*
X70611Y715951D01*
X70611Y692649D02*
X62309Y692649D01*
X62309Y715951D01*
X70611Y715951D01*
X70611Y696192D02*
X62309Y696192D01*
X62309Y699735D02*
X70611Y699735D01*
X70611Y703278D02*
X62309Y703278D01*
X62309Y706821D02*
X70611Y706821D01*
X70611Y710364D02*
X62309Y710364D01*
X62309Y713907D02*
X70611Y713907D01*
D41*
X86460Y704300D03*
X106460Y704300D03*
X126460Y704300D03*
X146460Y704300D03*
X166460Y704300D03*
X186460Y704300D03*
X66460Y540300D03*
X86460Y540300D03*
X106460Y540300D03*
X126460Y540300D03*
X146460Y540300D03*
X166460Y540300D03*
X186460Y540300D03*
X205510Y540300D03*
X205510Y704300D03*
D12*
X128880Y505460D03*
X109880Y505460D03*
D22*
X194420Y508000D03*
X176420Y508000D03*
D12*
X61620Y505460D03*
X80620Y505460D03*
D42*
X250220Y508000D03*
X222220Y508000D03*
D12*
X26060Y734060D03*
X45060Y734060D03*
D39*
X594360Y524510D03*
X619760Y537210D03*
X594360Y549910D03*
X619760Y562610D03*
X594360Y575310D03*
X619760Y588010D03*
D43*
X683260Y505460D03*
X683260Y607060D03*
D39*
X594360Y689610D03*
X619760Y702310D03*
X594360Y715010D03*
X619760Y727710D03*
X594360Y740410D03*
X619760Y753110D03*
D43*
X683260Y670560D03*
X683260Y772160D03*
D30*
X559680Y576580D03*
X542680Y576580D03*
X559680Y739140D03*
X542680Y739140D03*
X559680Y711200D03*
X542680Y711200D03*
D44*
X526440Y626329D03*
X535940Y626329D03*
X545440Y626329D03*
X545440Y653831D03*
X535940Y653831D03*
X526440Y653831D03*
D30*
X559680Y553720D03*
X542680Y553720D03*
X559680Y690880D03*
X542680Y690880D03*
D45*
X424180Y668020D03*
D46*
X411680Y678020D02*
X407680Y678020D01*
X407680Y668020D02*
X411680Y668020D01*
X411680Y658020D02*
X407680Y658020D01*
X436680Y658020D02*
X440680Y658020D01*
X440680Y668020D02*
X436680Y668020D01*
X436680Y678020D02*
X440680Y678020D01*
D22*
X430640Y637540D03*
X412640Y637540D03*
D12*
X357480Y538480D03*
X338480Y538480D03*
X386740Y538480D03*
X405740Y538480D03*
D47*
X342660Y644190D03*
X342660Y656690D03*
X342660Y669190D03*
X342660Y681690D03*
X312660Y681690D03*
X312660Y669190D03*
X312660Y656690D03*
X312660Y644190D03*
D22*
X366920Y665480D03*
X384920Y665480D03*
X366920Y645160D03*
X384920Y645160D03*
D48*
X385420Y593400D03*
X366420Y593400D03*
X385420Y600400D03*
D49*
X366920Y600400D03*
D30*
X348860Y594360D03*
X331860Y594360D03*
D50*
X384810Y236220D03*
D51*
X228600Y477520D03*
D50*
X299720Y579120D03*
D52*
X483870Y612140D03*
D53*
X316230Y119380D03*
X66040Y668020D03*
X86360Y632460D03*
M02*
