G04 EAGLE Gerber RS-274X export*
G75*
%MOMM*%
%FSLAX34Y34*%
%LPD*%
%INSolderpaste Top*%
%IPPOS*%
%AMOC8*
5,1,8,0,0,1.08239X$1,22.5*%
G01*
%ADD10R,1.200000X1.200000*%
%ADD11R,1.300000X1.600000*%
%ADD12R,1.900000X1.100000*%
%ADD13R,1.600000X1.300000*%
%ADD14R,1.200000X0.800000*%
%ADD15R,1.524000X0.762000*%
%ADD16R,0.547100X1.503800*%
%ADD17R,1.503800X0.547100*%
%ADD18R,0.800000X1.200000*%
%ADD19R,1.000000X1.800000*%
%ADD20C,0.140000*%
%ADD21R,0.600000X0.600000*%
%ADD22R,1.400000X1.400000*%
%ADD23R,1.200000X2.000000*%
%ADD24R,1.000000X1.100000*%
%ADD25R,1.100000X1.000000*%
%ADD26R,0.300000X1.450000*%
%ADD27R,0.600000X1.450000*%
%ADD28R,0.550000X1.450000*%
%ADD29R,1.150000X1.000000*%
%ADD30R,0.550000X1.200000*%
%ADD31R,1.300000X1.500000*%
%ADD32C,0.170000*%
%ADD33R,1.000000X2.500000*%
%ADD34R,2.000000X1.200000*%
%ADD35R,0.550000X1.350000*%
%ADD36R,1.600000X2.500000*%
%ADD37C,0.450000*%
%ADD38R,1.900000X0.600000*%
%ADD39R,0.900000X0.350000*%
%ADD40R,1.000000X0.350000*%

G36*
X637066Y49741D02*
X637066Y49741D01*
X637072Y49747D01*
X637077Y49743D01*
X638307Y50108D01*
X638312Y50115D01*
X638317Y50113D01*
X639436Y50743D01*
X639439Y50750D01*
X639445Y50749D01*
X640395Y51612D01*
X640396Y51620D01*
X640402Y51620D01*
X641136Y52673D01*
X641136Y52681D01*
X641141Y52683D01*
X641623Y53873D01*
X641621Y53878D01*
X641625Y53881D01*
X641624Y53882D01*
X641626Y53883D01*
X641831Y55150D01*
X641828Y55155D01*
X641831Y55158D01*
X641831Y67158D01*
X641828Y67162D01*
X641831Y67165D01*
X641676Y68287D01*
X641671Y68292D01*
X641674Y68296D01*
X641303Y69367D01*
X641297Y69371D01*
X641299Y69376D01*
X640726Y70353D01*
X640720Y70356D01*
X640721Y70361D01*
X639968Y71208D01*
X639961Y71210D01*
X639961Y71215D01*
X639058Y71899D01*
X639051Y71899D01*
X639050Y71904D01*
X638031Y72399D01*
X638024Y72397D01*
X638022Y72402D01*
X636925Y72689D01*
X636919Y72686D01*
X636916Y72690D01*
X635785Y72757D01*
X635779Y72757D01*
X634648Y72690D01*
X634643Y72685D01*
X634639Y72689D01*
X633542Y72402D01*
X633538Y72396D01*
X633533Y72399D01*
X632514Y71904D01*
X632511Y71898D01*
X632506Y71899D01*
X631603Y71215D01*
X631601Y71208D01*
X631596Y71208D01*
X630843Y70361D01*
X630843Y70354D01*
X630838Y70353D01*
X630265Y69376D01*
X630266Y69373D01*
X630265Y69372D01*
X630266Y69371D01*
X630266Y69369D01*
X630261Y69367D01*
X629890Y68296D01*
X629892Y68291D01*
X629889Y68289D01*
X629889Y68288D01*
X629888Y68287D01*
X629733Y67165D01*
X629736Y67160D01*
X629733Y67158D01*
X629733Y55158D01*
X629736Y55153D01*
X629733Y55150D01*
X629938Y53883D01*
X629944Y53877D01*
X629941Y53873D01*
X630423Y52683D01*
X630430Y52679D01*
X630428Y52673D01*
X631162Y51620D01*
X631170Y51618D01*
X631169Y51612D01*
X632119Y50749D01*
X632128Y50748D01*
X632128Y50743D01*
X633247Y50113D01*
X633255Y50114D01*
X633257Y50108D01*
X634487Y49743D01*
X634495Y49746D01*
X634498Y49741D01*
X635779Y49659D01*
X635783Y49662D01*
X635785Y49659D01*
X637066Y49741D01*
G37*
G36*
X550666Y49741D02*
X550666Y49741D01*
X550672Y49747D01*
X550677Y49743D01*
X551907Y50108D01*
X551912Y50115D01*
X551917Y50113D01*
X553036Y50743D01*
X553039Y50750D01*
X553045Y50749D01*
X553995Y51612D01*
X553996Y51620D01*
X554002Y51620D01*
X554736Y52673D01*
X554736Y52681D01*
X554741Y52683D01*
X555223Y53873D01*
X555221Y53878D01*
X555225Y53881D01*
X555224Y53882D01*
X555226Y53883D01*
X555431Y55150D01*
X555428Y55155D01*
X555431Y55158D01*
X555431Y67158D01*
X555428Y67162D01*
X555431Y67165D01*
X555276Y68287D01*
X555271Y68292D01*
X555274Y68296D01*
X554903Y69367D01*
X554897Y69371D01*
X554899Y69376D01*
X554326Y70353D01*
X554320Y70356D01*
X554321Y70361D01*
X553568Y71208D01*
X553561Y71210D01*
X553561Y71215D01*
X552658Y71899D01*
X552651Y71899D01*
X552650Y71904D01*
X551631Y72399D01*
X551624Y72397D01*
X551622Y72402D01*
X550525Y72689D01*
X550519Y72686D01*
X550516Y72690D01*
X549385Y72757D01*
X549379Y72757D01*
X548248Y72690D01*
X548243Y72685D01*
X548239Y72689D01*
X547142Y72402D01*
X547138Y72396D01*
X547133Y72399D01*
X546114Y71904D01*
X546111Y71898D01*
X546106Y71899D01*
X545203Y71215D01*
X545201Y71208D01*
X545196Y71208D01*
X544443Y70361D01*
X544443Y70354D01*
X544438Y70353D01*
X543865Y69376D01*
X543866Y69373D01*
X543865Y69372D01*
X543866Y69371D01*
X543866Y69369D01*
X543861Y69367D01*
X543490Y68296D01*
X543492Y68291D01*
X543489Y68289D01*
X543489Y68288D01*
X543488Y68287D01*
X543333Y67165D01*
X543336Y67160D01*
X543333Y67158D01*
X543333Y55158D01*
X543336Y55153D01*
X543333Y55150D01*
X543538Y53883D01*
X543544Y53877D01*
X543541Y53873D01*
X544023Y52683D01*
X544030Y52679D01*
X544028Y52673D01*
X544762Y51620D01*
X544770Y51618D01*
X544769Y51612D01*
X545719Y50749D01*
X545728Y50748D01*
X545728Y50743D01*
X546847Y50113D01*
X546855Y50114D01*
X546857Y50108D01*
X548087Y49743D01*
X548095Y49746D01*
X548098Y49741D01*
X549379Y49659D01*
X549383Y49662D01*
X549385Y49659D01*
X550666Y49741D01*
G37*
G36*
X636953Y10469D02*
X636953Y10469D01*
X636958Y10474D01*
X636962Y10471D01*
X638085Y10806D01*
X638089Y10812D01*
X638093Y10810D01*
X639129Y11358D01*
X639132Y11364D01*
X639137Y11363D01*
X640045Y12102D01*
X640047Y12109D01*
X640052Y12109D01*
X640799Y13011D01*
X640799Y13019D01*
X640805Y13019D01*
X641361Y14050D01*
X641360Y14057D01*
X641365Y14059D01*
X641709Y15178D01*
X641707Y15185D01*
X641711Y15188D01*
X641831Y16353D01*
X641829Y16356D01*
X641831Y16358D01*
X641831Y22358D01*
X641829Y22361D01*
X641831Y22363D01*
X641720Y23539D01*
X641715Y23544D01*
X641718Y23548D01*
X641380Y24680D01*
X641374Y24684D01*
X641376Y24689D01*
X640824Y25733D01*
X640817Y25736D01*
X640819Y25741D01*
X640073Y26657D01*
X640066Y26658D01*
X640066Y26664D01*
X639157Y27417D01*
X639149Y27417D01*
X639149Y27422D01*
X638109Y27983D01*
X638102Y27982D01*
X638100Y27987D01*
X636971Y28334D01*
X636965Y28332D01*
X636962Y28336D01*
X635787Y28457D01*
X635780Y28453D01*
X635776Y28457D01*
X634436Y28300D01*
X634430Y28295D01*
X634425Y28298D01*
X633154Y27847D01*
X633149Y27840D01*
X633144Y27842D01*
X632005Y27120D01*
X632002Y27112D01*
X631996Y27113D01*
X631046Y26155D01*
X631045Y26147D01*
X631039Y26146D01*
X630326Y25001D01*
X630327Y24993D01*
X630321Y24991D01*
X629881Y23715D01*
X629883Y23708D01*
X629879Y23705D01*
X629733Y22363D01*
X629735Y22360D01*
X629733Y22358D01*
X629733Y16358D01*
X629735Y16355D01*
X629733Y16352D01*
X629888Y15023D01*
X629894Y15017D01*
X629891Y15013D01*
X630338Y13752D01*
X630345Y13747D01*
X630343Y13742D01*
X631060Y12612D01*
X631067Y12609D01*
X631066Y12603D01*
X632017Y11661D01*
X632025Y11660D01*
X632025Y11654D01*
X633161Y10947D01*
X633169Y10948D01*
X633171Y10942D01*
X634436Y10506D01*
X634441Y10507D01*
X634442Y10507D01*
X634445Y10507D01*
X634447Y10503D01*
X635777Y10359D01*
X635783Y10363D01*
X635787Y10359D01*
X636953Y10469D01*
G37*
G36*
X550553Y10469D02*
X550553Y10469D01*
X550558Y10474D01*
X550562Y10471D01*
X551685Y10806D01*
X551689Y10812D01*
X551693Y10810D01*
X552729Y11358D01*
X552732Y11364D01*
X552737Y11363D01*
X553645Y12102D01*
X553647Y12109D01*
X553652Y12109D01*
X554399Y13011D01*
X554399Y13019D01*
X554405Y13019D01*
X554961Y14050D01*
X554960Y14057D01*
X554965Y14059D01*
X555309Y15178D01*
X555307Y15185D01*
X555311Y15188D01*
X555431Y16353D01*
X555429Y16356D01*
X555431Y16358D01*
X555431Y22358D01*
X555429Y22361D01*
X555431Y22363D01*
X555320Y23539D01*
X555315Y23544D01*
X555318Y23548D01*
X554980Y24680D01*
X554974Y24684D01*
X554976Y24689D01*
X554424Y25733D01*
X554417Y25736D01*
X554419Y25741D01*
X553673Y26657D01*
X553666Y26658D01*
X553666Y26664D01*
X552757Y27417D01*
X552749Y27417D01*
X552749Y27422D01*
X551709Y27983D01*
X551702Y27982D01*
X551700Y27987D01*
X550571Y28334D01*
X550565Y28332D01*
X550562Y28336D01*
X549387Y28457D01*
X549380Y28453D01*
X549376Y28457D01*
X548036Y28300D01*
X548030Y28295D01*
X548025Y28298D01*
X546754Y27847D01*
X546749Y27840D01*
X546744Y27842D01*
X545605Y27120D01*
X545602Y27112D01*
X545596Y27113D01*
X544646Y26155D01*
X544645Y26147D01*
X544639Y26146D01*
X543926Y25001D01*
X543927Y24993D01*
X543921Y24991D01*
X543481Y23715D01*
X543483Y23708D01*
X543479Y23705D01*
X543333Y22363D01*
X543335Y22360D01*
X543333Y22358D01*
X543333Y16358D01*
X543335Y16355D01*
X543333Y16352D01*
X543488Y15023D01*
X543494Y15017D01*
X543491Y15013D01*
X543938Y13752D01*
X543945Y13747D01*
X543943Y13742D01*
X544660Y12612D01*
X544667Y12609D01*
X544666Y12603D01*
X545617Y11661D01*
X545625Y11660D01*
X545625Y11654D01*
X546761Y10947D01*
X546769Y10948D01*
X546771Y10942D01*
X548036Y10506D01*
X548041Y10507D01*
X548042Y10507D01*
X548045Y10507D01*
X548047Y10503D01*
X549377Y10359D01*
X549383Y10363D01*
X549387Y10359D01*
X550553Y10469D01*
G37*
D10*
X406740Y208280D03*
X385740Y208280D03*
D11*
X403200Y182880D03*
X384200Y182880D03*
D12*
X347260Y398710D03*
X384260Y421710D03*
X347260Y421710D03*
X384260Y398710D03*
D13*
X449580Y368910D03*
X449580Y349910D03*
D14*
X408940Y402480D03*
X408940Y420480D03*
X322580Y417940D03*
X322580Y399940D03*
D11*
X522580Y285750D03*
X503580Y285750D03*
D10*
X574380Y285750D03*
X553380Y285750D03*
D14*
X474980Y355490D03*
X474980Y373490D03*
D15*
X476250Y438150D03*
X527050Y438150D03*
X476250Y400050D03*
X527050Y400050D03*
D16*
X396300Y373820D03*
X388300Y373820D03*
X380300Y373820D03*
X372300Y373820D03*
X364300Y373820D03*
X356300Y373820D03*
X348300Y373820D03*
X340300Y373820D03*
D17*
X325950Y359470D03*
X325950Y351470D03*
X325950Y343470D03*
X325950Y335470D03*
X325950Y327470D03*
X325950Y319470D03*
X325950Y311470D03*
X325950Y303470D03*
D16*
X340300Y289120D03*
X348300Y289120D03*
X356300Y289120D03*
X364300Y289120D03*
X372300Y289120D03*
X380300Y289120D03*
X388300Y289120D03*
X396300Y289120D03*
D17*
X410650Y303470D03*
X410650Y311470D03*
X410650Y319470D03*
X410650Y327470D03*
X410650Y335470D03*
X410650Y343470D03*
X410650Y351470D03*
X410650Y359470D03*
D18*
X351680Y266700D03*
X369680Y266700D03*
D19*
X593120Y189230D03*
X565120Y189230D03*
D11*
X522580Y237490D03*
X503580Y237490D03*
X522580Y261620D03*
X503580Y261620D03*
D10*
X553380Y237490D03*
X574380Y237490D03*
X553380Y261620D03*
X574380Y261620D03*
D20*
X501150Y175070D02*
X501150Y168470D01*
X501150Y175070D02*
X502550Y175070D01*
X502550Y168470D01*
X501150Y168470D01*
X501150Y169800D02*
X502550Y169800D01*
X502550Y171130D02*
X501150Y171130D01*
X501150Y172460D02*
X502550Y172460D01*
X502550Y173790D02*
X501150Y173790D01*
X506150Y175070D02*
X506150Y168470D01*
X506150Y175070D02*
X507550Y175070D01*
X507550Y168470D01*
X506150Y168470D01*
X506150Y169800D02*
X507550Y169800D01*
X507550Y171130D02*
X506150Y171130D01*
X506150Y172460D02*
X507550Y172460D01*
X507550Y173790D02*
X506150Y173790D01*
X511150Y175070D02*
X511150Y168470D01*
X511150Y175070D02*
X512550Y175070D01*
X512550Y168470D01*
X511150Y168470D01*
X511150Y169800D02*
X512550Y169800D01*
X512550Y171130D02*
X511150Y171130D01*
X511150Y172460D02*
X512550Y172460D01*
X512550Y173790D02*
X511150Y173790D01*
X516150Y175070D02*
X516150Y168470D01*
X516150Y175070D02*
X517550Y175070D01*
X517550Y168470D01*
X516150Y168470D01*
X516150Y169800D02*
X517550Y169800D01*
X517550Y171130D02*
X516150Y171130D01*
X516150Y172460D02*
X517550Y172460D01*
X517550Y173790D02*
X516150Y173790D01*
X521150Y175070D02*
X521150Y168470D01*
X521150Y175070D02*
X522550Y175070D01*
X522550Y168470D01*
X521150Y168470D01*
X521150Y169800D02*
X522550Y169800D01*
X522550Y171130D02*
X521150Y171130D01*
X521150Y172460D02*
X522550Y172460D01*
X522550Y173790D02*
X521150Y173790D01*
X526150Y175070D02*
X526150Y168470D01*
X526150Y175070D02*
X527550Y175070D01*
X527550Y168470D01*
X526150Y168470D01*
X526150Y169800D02*
X527550Y169800D01*
X527550Y171130D02*
X526150Y171130D01*
X526150Y172460D02*
X527550Y172460D01*
X527550Y173790D02*
X526150Y173790D01*
X531050Y179970D02*
X537650Y179970D01*
X537650Y178570D01*
X531050Y178570D01*
X531050Y179970D01*
X531050Y179900D02*
X537650Y179900D01*
X537650Y184970D02*
X531050Y184970D01*
X537650Y184970D02*
X537650Y183570D01*
X531050Y183570D01*
X531050Y184970D01*
X531050Y184900D02*
X537650Y184900D01*
X537650Y189970D02*
X531050Y189970D01*
X537650Y189970D02*
X537650Y188570D01*
X531050Y188570D01*
X531050Y189970D01*
X531050Y189900D02*
X537650Y189900D01*
X537650Y194970D02*
X531050Y194970D01*
X537650Y194970D02*
X537650Y193570D01*
X531050Y193570D01*
X531050Y194970D01*
X531050Y194900D02*
X537650Y194900D01*
X537650Y199970D02*
X531050Y199970D01*
X537650Y199970D02*
X537650Y198570D01*
X531050Y198570D01*
X531050Y199970D01*
X531050Y199900D02*
X537650Y199900D01*
X537650Y204970D02*
X531050Y204970D01*
X537650Y204970D02*
X537650Y203570D01*
X531050Y203570D01*
X531050Y204970D01*
X531050Y204900D02*
X537650Y204900D01*
X527550Y208470D02*
X527550Y215070D01*
X527550Y208470D02*
X526150Y208470D01*
X526150Y215070D01*
X527550Y215070D01*
X527550Y209800D02*
X526150Y209800D01*
X526150Y211130D02*
X527550Y211130D01*
X527550Y212460D02*
X526150Y212460D01*
X526150Y213790D02*
X527550Y213790D01*
X522550Y215070D02*
X522550Y208470D01*
X521150Y208470D01*
X521150Y215070D01*
X522550Y215070D01*
X522550Y209800D02*
X521150Y209800D01*
X521150Y211130D02*
X522550Y211130D01*
X522550Y212460D02*
X521150Y212460D01*
X521150Y213790D02*
X522550Y213790D01*
X517550Y215070D02*
X517550Y208470D01*
X516150Y208470D01*
X516150Y215070D01*
X517550Y215070D01*
X517550Y209800D02*
X516150Y209800D01*
X516150Y211130D02*
X517550Y211130D01*
X517550Y212460D02*
X516150Y212460D01*
X516150Y213790D02*
X517550Y213790D01*
X512550Y215070D02*
X512550Y208470D01*
X511150Y208470D01*
X511150Y215070D01*
X512550Y215070D01*
X512550Y209800D02*
X511150Y209800D01*
X511150Y211130D02*
X512550Y211130D01*
X512550Y212460D02*
X511150Y212460D01*
X511150Y213790D02*
X512550Y213790D01*
X507550Y215070D02*
X507550Y208470D01*
X506150Y208470D01*
X506150Y215070D01*
X507550Y215070D01*
X507550Y209800D02*
X506150Y209800D01*
X506150Y211130D02*
X507550Y211130D01*
X507550Y212460D02*
X506150Y212460D01*
X506150Y213790D02*
X507550Y213790D01*
X502550Y215070D02*
X502550Y208470D01*
X501150Y208470D01*
X501150Y215070D01*
X502550Y215070D01*
X502550Y209800D02*
X501150Y209800D01*
X501150Y211130D02*
X502550Y211130D01*
X502550Y212460D02*
X501150Y212460D01*
X501150Y213790D02*
X502550Y213790D01*
X497650Y203570D02*
X491050Y203570D01*
X491050Y204970D01*
X497650Y204970D01*
X497650Y203570D01*
X497650Y204900D02*
X491050Y204900D01*
X491050Y198570D02*
X497650Y198570D01*
X491050Y198570D02*
X491050Y199970D01*
X497650Y199970D01*
X497650Y198570D01*
X497650Y199900D02*
X491050Y199900D01*
X491050Y193570D02*
X497650Y193570D01*
X491050Y193570D02*
X491050Y194970D01*
X497650Y194970D01*
X497650Y193570D01*
X497650Y194900D02*
X491050Y194900D01*
X491050Y188570D02*
X497650Y188570D01*
X491050Y188570D02*
X491050Y189970D01*
X497650Y189970D01*
X497650Y188570D01*
X497650Y189900D02*
X491050Y189900D01*
X491050Y183570D02*
X497650Y183570D01*
X491050Y183570D02*
X491050Y184970D01*
X497650Y184970D01*
X497650Y183570D01*
X497650Y184900D02*
X491050Y184900D01*
X491050Y178570D02*
X497650Y178570D01*
X491050Y178570D02*
X491050Y179970D01*
X497650Y179970D01*
X497650Y178570D01*
X497650Y179900D02*
X491050Y179900D01*
D21*
X523350Y182770D03*
X514350Y191770D03*
X514350Y182770D03*
X505350Y182770D03*
X505350Y200770D03*
X523350Y200770D03*
X514350Y200770D03*
X505350Y191770D03*
X523350Y191770D03*
D14*
X459740Y217280D03*
X459740Y199280D03*
X459740Y163720D03*
X459740Y181720D03*
D22*
X407120Y154940D03*
X370120Y154940D03*
D14*
X373380Y32910D03*
X373380Y50910D03*
D18*
X394860Y115570D03*
X412860Y115570D03*
D23*
X373380Y110520D03*
X373380Y82520D03*
D24*
X610108Y117974D03*
X610108Y100974D03*
D25*
X554110Y90932D03*
X571110Y90932D03*
D26*
X600082Y70358D03*
X595082Y70358D03*
D27*
X624832Y70358D03*
D28*
X617082Y70358D03*
D26*
X610082Y70358D03*
X605082Y70358D03*
X585082Y70358D03*
X590082Y70358D03*
D27*
X560332Y70358D03*
D28*
X568082Y70358D03*
D26*
X575082Y70358D03*
X580082Y70358D03*
D29*
X446730Y102470D03*
X446730Y77470D03*
X446730Y52470D03*
X503230Y102470D03*
X503230Y77470D03*
X503230Y52470D03*
D30*
X399440Y60659D03*
X408940Y60659D03*
X418440Y60659D03*
X418440Y86661D03*
X399440Y86661D03*
D31*
X338480Y182880D03*
X357480Y182880D03*
D14*
X357886Y228998D03*
X357886Y246998D03*
D32*
X70610Y692650D02*
X70610Y715950D01*
X70610Y692650D02*
X62310Y692650D01*
X62310Y715950D01*
X70610Y715950D01*
X70610Y694265D02*
X62310Y694265D01*
X62310Y695880D02*
X70610Y695880D01*
X70610Y697495D02*
X62310Y697495D01*
X62310Y699110D02*
X70610Y699110D01*
X70610Y700725D02*
X62310Y700725D01*
X62310Y702340D02*
X70610Y702340D01*
X70610Y703955D02*
X62310Y703955D01*
X62310Y705570D02*
X70610Y705570D01*
X70610Y707185D02*
X62310Y707185D01*
X62310Y708800D02*
X70610Y708800D01*
X70610Y710415D02*
X62310Y710415D01*
X62310Y712030D02*
X70610Y712030D01*
X70610Y713645D02*
X62310Y713645D01*
X62310Y715260D02*
X70610Y715260D01*
D33*
X86460Y704300D03*
X106460Y704300D03*
X126460Y704300D03*
X146460Y704300D03*
X166460Y704300D03*
X186460Y704300D03*
X66460Y540300D03*
X86460Y540300D03*
X106460Y540300D03*
X126460Y540300D03*
X146460Y540300D03*
X166460Y540300D03*
X186460Y540300D03*
X205510Y540300D03*
X205510Y704300D03*
D11*
X128880Y505460D03*
X109880Y505460D03*
D18*
X194420Y508000D03*
X176420Y508000D03*
D11*
X61620Y505460D03*
X80620Y505460D03*
D34*
X250220Y508000D03*
X222220Y508000D03*
D11*
X26060Y734060D03*
X45060Y734060D03*
D25*
X559680Y576580D03*
X542680Y576580D03*
X559680Y739140D03*
X542680Y739140D03*
X559680Y711200D03*
X542680Y711200D03*
D35*
X526440Y626329D03*
X535940Y626329D03*
X545440Y626329D03*
X545440Y653831D03*
X535940Y653831D03*
X526440Y653831D03*
D25*
X559680Y553720D03*
X542680Y553720D03*
X559680Y690880D03*
X542680Y690880D03*
D36*
X424180Y668020D03*
D37*
X411680Y678020D02*
X407680Y678020D01*
X407680Y668020D02*
X411680Y668020D01*
X411680Y658020D02*
X407680Y658020D01*
X436680Y658020D02*
X440680Y658020D01*
X440680Y668020D02*
X436680Y668020D01*
X436680Y678020D02*
X440680Y678020D01*
D18*
X430640Y637540D03*
X412640Y637540D03*
D11*
X357480Y538480D03*
X338480Y538480D03*
X386740Y538480D03*
X405740Y538480D03*
D38*
X342660Y644190D03*
X342660Y656690D03*
X342660Y669190D03*
X342660Y681690D03*
X312660Y681690D03*
X312660Y669190D03*
X312660Y656690D03*
X312660Y644190D03*
D18*
X366920Y665480D03*
X384920Y665480D03*
X366920Y645160D03*
X384920Y645160D03*
D39*
X385420Y593400D03*
X366420Y593400D03*
X385420Y600400D03*
D40*
X366920Y600400D03*
D25*
X348860Y594360D03*
X331860Y594360D03*
M02*
