M48
;GenerationSoftware,Autodesk,EAGLE,9.3.0*%
;CreationDate,2019-05-23T11:58:18Z*%
FMAT,2
ICI,OFF
METRIC,TZ,000.000
T9C0.350
T8C0.400
T7C0.650
T6C0.850
T5C0.900
T4C1.000
T3C1.016
T2C3.048
T1C3.251
%
G90
M71
T1
X68326Y50546
X68326Y60706
X68326Y77216
X68326Y67056
T2
X5207Y77851
X69723Y8712
X6020Y4140
T3
X59436Y74041
X61976Y72771
X59436Y71501
X61976Y70231
X59436Y68961
X61976Y58801
X59436Y57531
X61976Y56261
X59436Y54991
X61976Y53721
X59436Y52451
X71120Y15748
X71120Y13208
X61976Y75311
T4
X69088Y40259
X71628Y40259
X71628Y37719
X69088Y35179
X71628Y35179
X69088Y32639
X71628Y32639
X69088Y30099
X71628Y30099
X69088Y27559
X71628Y27559
X69088Y25019
X71628Y25019
X69088Y22479
X71628Y22479
X69088Y19939
X71628Y19939
X4572Y8509
X2032Y8509
X4572Y11049
X2032Y11049
X69088Y45339
X2032Y13589
X4572Y16129
X2032Y16129
X4572Y18669
X2032Y18669
X4572Y21209
X2032Y21209
X4572Y23749
X2032Y23749
X4572Y26289
X2032Y26289
X4572Y28829
X2032Y28829
X4572Y31369
X2032Y31369
X4572Y33909
X2032Y33909
X4572Y36449
X2032Y36449
X4572Y38989
X4572Y41529
X2032Y38989
X2032Y41529
X4572Y44069
X2032Y44069
X4572Y46609
X2032Y46609
X69088Y37719
X71628Y45339
X69088Y42799
X71628Y42799
X22860Y47752
X4572Y13589
T5
X28956Y22860
X23876Y20320
X23876Y22860
X26416Y22860
X26416Y20320
X28956Y20320
T6
X29972Y57912
X47498Y9247
X47498Y6247
X38481Y23622
T7
X56368Y5591
X62148Y5591
X48387Y61214
T8
X8636Y63246
X6604Y66802
X31623Y11938
T9
X27432Y38989
X27305Y36576
X30226Y38608
X42672Y36449
X26797Y39751
X25781Y36576
X30226Y39624
X42037Y37211
X38633Y31547
X38481Y15367
X56515Y21082
X57607Y11151
X59385Y10160
X39243Y30353
X55499Y30226
X59741Y36576
X47549Y17780
X47371Y28194
X48133Y18796
X27305Y38080
X27854Y35840
X30226Y37592
X39751Y35306
X48133Y26797
X48514Y21045
X30226Y36576
X39624Y34290
X47244Y26289
X47904Y19837
X45466Y64008
X32512Y61849
X38481Y61595
X58268Y34341
X45720Y38481
X42818Y32658
X41783Y59182
X31750Y60833
X42361Y31830
X57760Y33376
X46736Y38608
X58674Y31369
X43053Y30988
X59436Y29972
X42393Y30328
X57582Y30150
X43028Y29591
X48641Y27686
X21590Y20447
X48387Y28702
X35814Y31877
X42472Y33630
X35560Y30734
X32896Y24254
X53594Y67564
X44958Y33528
X42926Y56007
X34163Y25400
X44704Y38354
X35306Y35560
X34798Y31496
X53721Y16510
X48514Y16256
X37465Y68707
X43467Y43869
X22352Y28829
X44196Y18034
X44704Y20701
X53035Y36220
X60452Y32055
X7112Y17526
X61341Y26797
X62357Y22352
X55880Y72644
X37338Y51435
M30